<?xml version="1.0" standalone="no"?>
<!DOCTYPE svg PUBLIC "-//W3C//DTD SVG 20010904//EN"
 "http://www.w3.org/TR/2001/REC-SVG-20010904/DTD/svg10.dtd">
<svg version="1.0" xmlns="http://www.w3.org/2000/svg"
 width="700.000000pt" height="700.000000pt" viewBox="0 0 700.000000 700.000000"
 preserveAspectRatio="xMidYMid meet">
<metadata>
Created by potrace 1.14, written by Peter Selinger 2001-2017
</metadata>
<g transform="translate(0.000000,700.000000) scale(0.100000,-0.100000)"
fill="#000000" stroke="none">
<path d="M846 5850 c-2 -5 0 -4677 3 -4695 1 -7 188 -10 544 -10 l542 0 2
1420 c2 781 3 1449 3 1485 l1 65 60 -125 c34 -69 88 -181 121 -250 72 -148
170 -353 243 -505 29 -60 85 -177 125 -260 40 -82 98 -204 130 -270 88 -184
174 -363 267 -555 46 -96 111 -231 144 -300 l60 -126 416 1 416 0 79 165 c44
91 93 194 110 230 17 36 69 144 115 240 47 96 107 220 133 275 26 55 80 168
120 250 40 83 96 200 125 260 29 61 85 178 125 260 40 83 89 186 110 230 21
44 76 159 123 255 l86 175 1 -1460 0 -1460 548 0 c301 -1 549 2 552 6 4 6 5
4661 1 4694 -1 7 -211 10 -618 10 l-616 0 -58 -120 c-32 -66 -85 -178 -119
-250 -126 -263 -173 -363 -227 -475 -31 -63 -75 -155 -98 -205 -23 -49 -73
-153 -110 -230 -37 -77 -84 -176 -105 -220 -21 -44 -70 -147 -110 -230 -40
-82 -89 -186 -110 -230 -56 -119 -119 -251 -204 -430 -43 -88 -102 -212 -132
-275 -30 -63 -72 -151 -93 -195 l-38 -80 -43 90 c-23 50 -64 135 -90 190 -69
146 -127 267 -224 469 -47 98 -86 180 -86 181 0 1 -45 97 -101 211 -55 115
-109 227 -119 249 -10 22 -53 112 -95 200 -43 88 -96 201 -120 250 -122 255
-157 329 -205 430 -29 61 -79 166 -112 235 -33 69 -93 195 -134 280 l-76 155
-630 0 c-346 0 -631 -2 -632 -5z"/>
</g>
</svg>
