<svg width="327" height="73" viewBox="0 0 327 73" fill="none" xmlns="http://www.w3.org/2000/svg">
<path fill-rule="evenodd" clip-rule="evenodd" d="M58.361 6.07336C59.8801 5.85727 61.4358 5.74375 63.0172 5.74375C81.1588 5.74375 95.8704 20.4597 95.8704 38.6065C95.8704 56.7533 81.3967 71.4655 63.0208 71.4655C44.645 71.4655 33.1399 54.7064 32.7775 43.4654C32.7775 43.4654 36.6174 34.8534 37.7083 31.3236C38.7991 27.7939 39.436 22.5504 35.1825 19.2953C31.8441 20.1924 29.8967 22.3161 29.527 25.2087C29.2268 27.5741 30.5812 29.6137 32.8837 28.7056C35.1898 27.7939 33.7549 23.9126 31.8002 23.6416C36.7053 23.2059 37.1811 31.3273 31.0681 30.9904C28.502 30.8476 26.4851 27.8781 27.3453 23.8137C24.6182 26.3914 23.941 31.6385 23.941 31.6385L21.9899 30.485C21.9899 30.485 21.8289 31.719 22.96 32.6491C20.8588 34.1759 19.2116 34.6812 17.352 35.0034C16.6638 35.8639 17.3008 36.7354 18.0073 37.3909C18.7138 38.0463 18.7137 38.5003 18.6625 39.4011C18.6113 40.2982 18.4392 41.1476 17.6815 41.9678C16.9238 42.7843 17.1361 43.1908 18.4099 44.4833C16.2173 44.9593 17.1763 46.7205 17.6412 47.1636C17.6858 47.2063 17.7287 47.2458 17.7699 47.2837C18.1586 47.6415 18.3891 47.8537 18.2965 49.2873C18.2735 49.6827 18.0373 50.055 17.76 50.4922C17.6393 50.6825 17.5107 50.8851 17.3886 51.1071C16.8615 52.0664 16.5431 53.2895 17.945 54.3696C-1.84013 58.6903 -0.950613 37.541 0.905274 33.5206C0.586799 35.6406 0.824731 39.4011 4.76714 41.4845C3.23338 39.4413 1.00778 33.3155 3.5555 26.2999C3.5555 26.2999 0.590472 20.4194 1.99245 14.1507C3.39077 7.8821 10.3421 4.48417 14.98 7.6258C18.4283 9.96197 18.0622 15.4324 14.9251 17.0874C12.5238 18.3542 8.54847 16.432 9.56242 12.5323C9.56242 12.5323 10.1921 14.5682 12.0003 14.5133C14.6652 14.4327 14.7494 10.0242 11.1914 10.0242C6.46197 10.0242 5.00872 19.4051 12.8496 19.4051C16.6421 19.4051 18.6259 16.4532 21.037 12.8655C23.6108 9.03567 26.6714 4.48143 32.9386 2.01995C44.3192 -2.45082 52.6652 1.21073 57.7972 6.10261C57.8924 6.09713 57.9858 6.09256 58.0791 6.08799C58.1725 6.08342 58.2658 6.07885 58.361 6.07336ZM49.1114 35.348H43.9066L43.8993 35.3516V50.7075C41.9744 47.2417 40.875 43.2478 40.875 38.9972C40.875 25.6877 51.6206 14.8979 64.8755 14.8979C71.4573 14.8979 77.4145 17.5569 81.75 21.8626H79.1531V42.3969H77.4583V28.6657H77.0164L75.1682 24.7672L74.7847 22.0239L74.4012 24.7672L72.553 28.6657H72.0965V46.6879H70.8072V27.5325H64.4335V44.6231H63.3049V46.9299H62.0156V52.2368H61.5737V56.6123H60.3647V41.5864H55.9671V48.1879H54.3125V44.4618H50.2802V50.4545H49.1114V35.348Z" fill="#010101"/>
<path d="M25.6969 56.2897C27.4166 59.7524 25.517 63.5749 22.0632 63.5749C20.0938 63.5749 17.8169 61.572 18.3953 59.2066C18.9554 56.9143 22.0632 57.1341 22.0632 59.0894C22.0632 61.0446 20.1231 60.9275 20.1231 60.9275C23.0735 63.8201 27.1366 57.8738 22.1181 55.4205C20.5184 54.6369 18.2306 55.1971 16.9714 56.541C13.7391 59.9975 14.6286 66.083 18.7101 69.4004C22.7916 72.7178 28.6338 74.7427 34.8384 70.9419C33.133 64.8761 29.2141 58.1919 25.6969 56.2897Z" fill="#010101"/>
<path d="M25.6969 56.2897L25.6944 56.2883V56.2846L25.6969 56.2897Z" fill="#010101"/>
<path fill-rule="evenodd" clip-rule="evenodd" d="M326.708 45.744C326.708 45.744 322.87 49.8124 321.649 49.6604C320.618 49.5287 320.444 49.4477 320.434 47.9378C320.425 46.8829 320.952 45.5415 321.682 43.6851C322.221 42.3137 322.871 40.6607 323.496 38.6355C324.712 34.6886 323.122 32.8241 320.823 32.7937H320.321C320.321 32.7937 318.807 34.4353 318.469 35.3827C316.945 37.1004 314.272 39.5728 309.707 42.4659C309.553 42.5621 309.348 42.4405 309.373 42.2632C309.6 40.7258 310.446 37.5674 311.137 34.9871C311.478 33.7154 311.781 32.5841 311.954 31.8564C312.036 31.5017 311.697 31.2079 311.348 31.3143C309.224 31.9627 306.557 34.0249 305.454 34.9319C305.1 35.2206 304.828 35.5956 304.669 36.0211C303.783 38.4301 303.483 42.0548 303.325 43.966C303.286 44.4339 303.256 44.8001 303.227 45.0194C301.227 47.0562 299.631 48.2469 298.734 48.7738C297.759 49.3412 296.738 49.625 295.666 49.625C292.926 49.625 291.228 48.0644 290.582 44.9383C297.718 42.8711 301.283 40.1808 301.283 36.8672C301.283 35.6158 300.827 34.6075 299.919 33.8374C299.011 33.0673 297.805 32.6822 296.292 32.6822C293.388 32.6822 290.746 34.0553 288.361 36.8014C286.191 39.3043 285.021 42.0757 284.826 45.1157C283.318 46.6863 282.164 47.73 281.374 48.2367C280.563 48.7586 279.742 49.0169 278.911 49.0169C278.311 49.0169 277.818 48.7788 277.439 48.3076C277.059 47.8364 276.869 47.2234 276.869 46.4685C276.869 45.3639 277.152 43.8744 277.716 42.0047L279.337 36.6189L283.113 36.3302L283.918 32.6316L280.481 32.8241L282.995 24.4693L276.495 25.7866L274.212 33.2801L271.898 33.3764L271.119 37.146L272.986 37.0497L271.955 40.6875C271.452 42.3391 271.103 43.7882 270.903 45.0498C269.364 46.656 268.189 47.72 267.389 48.2317C266.579 48.7535 265.758 49.0119 264.927 49.0119C264.326 49.0119 263.834 48.7738 263.454 48.3025C263.075 47.8314 262.885 47.2183 262.885 46.4634C262.885 45.3589 263.167 43.8693 263.731 41.9998L265.352 36.614L269.128 36.3252L269.934 32.6266L266.496 32.8191L269.01 24.4642L262.51 25.7815L260.228 33.275L257.914 33.3713L257.134 37.1409L259.001 37.0446L257.97 40.6824C257.473 42.3189 257.124 43.7578 256.929 45.0093C254.985 46.9397 253.533 48.1911 252.563 48.7535C251.589 49.3209 250.568 49.6047 249.496 49.6047C246.756 49.6047 245.058 48.0442 244.412 44.9181C251.548 42.8509 255.113 40.1606 255.113 36.847C255.113 35.5956 254.656 34.5873 253.748 33.8172C252.84 33.0471 251.635 32.662 250.121 32.662C247.218 32.662 244.576 34.035 242.19 36.7811C240.015 39.284 238.846 42.0605 238.656 45.1056C235.152 49.0119 232.336 50.9676 230.212 50.9676C229.468 50.9676 228.857 50.689 228.391 50.1265C227.919 49.5641 227.688 48.8295 227.688 47.9175C227.688 46.205 228.155 43.6919 229.093 40.3835C230.032 37.075 231.135 35.4232 232.397 35.4183C232.9 35.4183 233.305 35.6918 233.623 36.234C233.941 36.7811 234.105 37.3435 234.121 37.9261C234.136 38.5088 234.259 38.8027 234.485 38.8027C234.844 38.8027 235.475 38.372 236.383 37.5158C237.291 36.6596 237.748 36.1174 237.748 35.8945C237.748 35.2206 237.43 34.5112 236.799 33.7665C236.168 33.0217 235.234 32.6518 234.003 32.6518C232.772 32.6518 231.689 33.0267 230.802 33.7817C229.919 34.5366 229.068 35.7222 228.257 37.3385C227.724 34.2124 226.103 32.6518 223.394 32.6518C221.757 32.6518 220.121 33.3865 218.49 34.8507C216.858 36.315 215.037 38.6507 213.026 41.8528C211.99 43.4893 210.323 45.7035 210.323 45.7035C210.323 45.7035 206.485 49.7719 205.264 49.6199C204.233 49.4882 204.059 49.407 204.049 47.8973C204.04 46.8424 204.567 45.5011 205.297 43.6447C205.836 42.2732 206.486 40.6207 207.111 38.5949C208.327 34.6481 206.737 32.7835 204.439 32.7532H203.936C203.936 32.7532 202.422 34.3948 202.084 35.3422C200.56 37.0597 197.887 39.5323 193.322 42.4253C193.168 42.5216 192.963 42.4 192.988 42.2227C193.215 40.6853 194.061 37.5269 194.752 34.9466C195.093 33.6751 195.396 32.5433 195.569 31.8159C195.651 31.4612 195.312 31.1673 194.963 31.2738C192.84 31.9222 190.172 33.9843 189.069 34.8912C188.715 35.18 188.443 35.555 188.284 35.9806C187.398 38.3895 187.098 42.0141 186.94 43.9253C186.923 44.1298 186.908 44.3146 186.893 44.4763C186.875 44.6851 186.858 44.8551 186.842 44.9788C185.478 46.3265 184.421 47.3247 183.662 47.9884C182.898 48.6522 182.2 48.9865 181.569 48.9865C180.579 48.9865 180.086 48.2976 180.086 46.9194C180.086 45.5413 180.64 43.1802 181.743 39.6387L183.882 32.6012H182.518L177.557 35.3169C176.747 33.4726 175.326 32.5556 173.299 32.5556C171.694 32.5556 169.847 33.2294 167.754 34.5721C165.661 35.9198 163.947 37.6779 162.608 39.8565C161.557 41.5691 160.926 43.3575 160.7 45.212C158.556 47.7605 156.698 49.0372 155.129 49.0372C153.133 49.0372 152.138 47.4261 152.138 44.2088C152.138 41.3563 152.687 37.531 153.779 32.7228C154.872 27.9146 156.052 24.1045 157.319 21.2875C157.853 20.1171 158.119 19.3673 158.119 19.0278C158.119 18.7897 157.899 18.668 157.463 18.668C156.278 18.668 154.826 18.8302 153.107 19.1494C152.605 19.2456 151.702 19.96 150.394 21.2976C149.091 22.6351 147.972 24.0335 147.049 25.4877C145.105 28.5175 142.945 33.0471 140.58 39.0864C138.943 43.3475 137.692 45.9923 136.835 47.0156C137.743 43.6869 138.2 39.3448 138.2 33.9945L138.153 26.6682C138.153 24.525 138.297 22.3819 138.589 20.2539C138.687 19.7066 138.733 19.347 138.733 19.1746C138.733 18.8048 138.569 18.6224 138.246 18.6224C137.42 18.6224 136.589 18.668 135.763 18.7541C134.937 18.8403 134.373 18.9568 134.07 19.0885C133.767 19.2253 132.962 20.2995 131.649 22.321C130.741 23.7296 130.012 25.1431 129.458 26.5517C128.904 27.9602 128.345 29.85 127.781 32.2212L127.073 35.1295C125.826 40.3024 124.446 44.1277 122.938 46.6002C121.43 49.0727 120.05 50.314 118.803 50.314C118.249 50.314 117.792 50.1519 117.428 49.8226C117.064 49.4933 116.792 48.7889 116.612 47.7098C116.433 46.6306 116.289 45.9669 116.176 45.7287C116.064 45.4906 115.828 45.369 115.468 45.369C115.161 45.369 114.417 45.8655 113.242 46.8585C112.067 47.8517 111.477 48.7484 111.477 49.5489C111.477 50.5927 111.965 51.5098 112.939 52.3102C113.914 53.1107 115.038 53.511 116.32 53.511C118.398 53.511 120.511 52.3711 122.671 50.086C124.826 47.8061 126.744 43.4031 128.411 36.8825L129.022 34.5265C130.612 28.2641 132.167 24.2767 133.69 22.5592C132.264 26.2426 131.5 30.6657 131.402 35.8337C131.305 41.0016 131.146 44.6597 130.93 46.813C130.71 48.9663 130.494 50.5319 130.284 51.5098C130.074 52.4875 129.966 52.9892 129.966 53.0246C129.966 53.3438 130.263 53.506 130.864 53.506C132.418 53.506 133.511 53.3641 134.137 53.0753C134.762 52.7865 135.476 52.1582 136.276 51.1905C137.076 50.2228 137.917 48.9663 138.795 47.4312C139.672 45.8909 140.965 43.0029 142.673 38.7571C144.381 34.5112 145.854 31.2079 147.09 28.8468C148.321 26.4858 149.901 24.3123 151.835 22.3261L150.424 24.824C148.947 27.4991 147.747 30.7975 146.813 34.7241C145.879 38.6507 145.412 41.7312 145.412 43.9757C145.412 46.8738 145.889 49.1892 146.833 50.9169C147.782 52.6446 149.162 53.511 150.978 53.511C153.897 53.511 157.124 51.6618 160.664 47.9681C160.838 49.3615 161.305 50.5724 162.085 51.6009C163.08 52.9233 164.296 53.582 165.722 53.582C167.148 53.582 168.595 53.0348 169.965 51.9505C171.334 50.8612 172.832 49.174 174.453 46.8789V47.573C174.453 51.5756 175.659 53.5769 178.075 53.5769C179.096 53.5769 180.168 53.207 181.287 52.4724C182.369 51.7579 184.149 50.2431 186.617 47.9429C186.614 48.0953 186.607 48.2477 186.601 48.4009C186.596 48.5329 186.591 48.6655 186.591 48.7991C186.591 49.858 186.678 51.4642 186.858 53.6276L192.234 52.3762C192.234 50.9322 192.26 49.7921 192.306 48.9409C192.326 48.671 192.34 48.4315 192.353 48.2048C192.395 47.4785 192.43 46.884 192.614 45.8453C195.83 44.3759 199.683 41.6754 199.683 41.6754C199.683 41.6754 196.369 48.9055 198.041 51.8999C198.867 53.3793 200.319 53.5769 201.602 53.5769C202.751 53.5769 204.049 53.1007 205.495 52.1481C206.937 51.1956 208.732 49.7162 210.872 47.7149V47.578C212.246 46.3216 213.611 44.5685 214.96 42.3088C217.587 37.9059 219.695 35.702 221.286 35.702C222.553 35.702 223.184 36.5582 223.184 38.2707C223.184 38.833 222.953 40.3024 222.491 42.6938C222.029 45.0802 221.378 47.0765 220.547 48.6876C219.711 50.2988 218.756 51.1044 217.689 51.1044C216.699 51.1044 215.94 50.3849 215.401 48.9409C215.16 48.2519 214.909 47.9074 214.647 47.9074C214.468 47.9074 213.909 48.3025 212.97 49.098C212.031 49.8884 211.559 50.4458 211.559 50.77C211.559 51.4591 212.021 52.1076 212.944 52.7156C213.867 53.3236 214.888 53.6276 216.012 53.6276C218.767 53.6276 220.957 52.0011 222.578 48.7484C223.471 52.0011 225.343 53.6276 228.196 53.6276C231.207 53.6276 234.731 51.6617 238.758 47.7351C239.025 49.2196 239.651 50.4761 240.636 51.4895C241.99 52.8828 243.77 53.582 245.976 53.582C247.957 53.582 249.762 53.1057 251.399 52.1532C252.979 51.2361 254.754 49.8277 256.724 47.9327C256.816 49.5185 257.242 50.8207 258.006 51.8391C258.873 52.9993 260.007 53.582 261.397 53.582C262.787 53.582 264.162 53.1057 265.655 52.1532C267.086 51.2412 268.774 49.8377 270.713 47.9581C270.811 49.5287 271.237 50.8257 271.996 51.8391C272.863 52.9993 273.997 53.582 275.387 53.582C276.777 53.582 278.152 53.1057 279.645 52.1532C281.132 51.2007 282.897 49.7314 284.929 47.7351C285.195 49.2196 285.821 50.4761 286.806 51.4895C288.161 52.8828 289.941 53.582 292.147 53.582C294.127 53.582 295.933 53.1057 297.569 52.1532C298.985 51.3273 302.756 48.1708 302.997 47.9479C302.994 48.0689 302.989 48.1898 302.984 48.3111C302.978 48.4744 302.971 48.6384 302.971 48.8042C302.971 49.8631 303.058 51.4692 303.238 53.6327L308.614 52.3812C308.614 50.9372 308.64 49.7972 308.686 48.946C308.705 48.6761 308.719 48.4367 308.733 48.21C308.775 47.4836 308.81 46.8891 308.994 45.8503C312.21 44.381 316.063 41.6805 316.063 41.6805C316.063 41.6805 312.749 48.9106 314.421 51.9049C315.247 53.3844 316.699 53.582 317.981 53.582C319.131 53.582 320.428 53.1057 321.875 52.1532C323.26 51.2361 324.974 49.8327 327 47.953V45.293C326.81 45.5514 326.687 45.7135 326.687 45.7135L326.708 45.744ZM173.658 44.9788C172.222 47.7098 170.693 49.0727 169.072 49.0727C168.405 49.0727 167.861 48.8042 167.43 48.2671C167 47.73 166.784 47.0309 166.784 46.1645C166.784 43.8744 167.507 41.3664 168.959 38.6456C170.411 35.9249 171.945 34.5619 173.571 34.5619C174.253 34.5619 174.797 34.8153 175.202 35.3169C175.608 35.8235 175.813 36.5228 175.813 37.4195C175.813 39.7248 175.095 42.243 173.658 44.9739V44.9788ZM245.679 37.0243C246.654 35.4132 247.674 34.6075 248.747 34.6075C249.88 34.6075 250.45 35.3776 250.45 36.9128C250.45 40.0187 248.372 42.1517 244.222 43.3018C244.222 40.7229 244.709 38.6305 245.684 37.0192L245.679 37.0243ZM291.849 37.0243C292.824 35.4132 293.845 34.6075 294.917 34.6075C296.051 34.6075 296.62 35.3776 296.62 36.9128C296.62 40.0187 294.542 42.1517 290.392 43.3018C290.392 40.7229 290.879 38.6305 291.854 37.0192L291.849 37.0243Z" fill="#010101"/>
<path d="M167.786 15.584C167.406 15.1727 167.216 14.5557 167.216 13.7367C167.216 12.9178 167.402 12.2796 167.779 11.8364C168.156 11.3933 168.707 11.1734 169.431 11.1734C169.67 11.1734 169.893 11.2053 170.102 11.2656C170.311 11.3258 170.49 11.3933 170.635 11.4677C170.682 11.4918 170.722 11.5121 170.754 11.5289L170.771 11.5377L170.804 11.5552L170.811 11.5595L170.82 11.5641L170.831 11.5704C170.847 11.58 170.855 11.5882 170.855 11.5882L170.762 11.9853C170.736 11.9676 170.661 11.9251 170.542 11.8647C170.423 11.8045 170.27 11.7442 170.083 11.6874C169.897 11.6308 169.707 11.5989 169.509 11.5989C168.987 11.5989 168.603 11.762 168.361 12.0917C168.118 12.4214 167.995 12.9639 167.995 13.7261C167.995 14.4884 168.122 14.9847 168.383 15.3004C168.64 15.6159 169.002 15.7754 169.472 15.7754C169.737 15.7754 169.96 15.7293 170.147 15.6406C170.333 15.552 170.479 15.4563 170.579 15.357C170.68 15.2577 170.732 15.1975 170.732 15.1797L171.057 15.3819C171.057 15.4067 170.997 15.4882 170.874 15.63C170.751 15.7718 170.568 15.8995 170.326 16.02C170.083 16.1405 169.778 16.2044 169.412 16.2044C168.707 16.2044 168.167 15.9988 167.786 15.584Z" fill="#010101"/>
<path d="M175.095 16.1051V11.7265H173.551V11.2727H177.373L177.362 11.7265H175.826V16.1051H175.095Z" fill="#010101"/>
<path d="M180.237 18.5904C180.148 18.5728 180.081 18.5515 180.036 18.5338C179.991 18.516 179.958 18.5018 179.943 18.4948L180.025 18.0515C180.043 18.0658 180.096 18.0835 180.178 18.1047C180.26 18.1261 180.345 18.1402 180.442 18.1402C180.756 18.1402 181.017 17.9807 181.225 17.6616C181.434 17.3424 181.669 16.8461 181.926 16.169L179.935 11.2762H180.808L182.314 15.318L183.675 11.2762H184.216L182.456 16.1866C182.165 16.9808 181.878 17.5836 181.598 17.9984C181.319 18.4132 180.968 18.6224 180.558 18.6224C180.435 18.6224 180.33 18.6118 180.241 18.594L180.237 18.5904Z" fill="#010101"/>
<path fill-rule="evenodd" clip-rule="evenodd" d="M186.632 15.662H187.274C187.512 15.1195 187.673 14.5133 187.758 13.8396C187.844 13.166 187.885 12.3115 187.885 11.2727H190.812V15.662H191.525L191.454 17.5552H191.036L190.913 16.1051H187.244L187.113 17.5552H186.685L186.632 15.662ZM190.067 11.7194H188.37C188.363 12.6093 188.322 13.3609 188.247 13.9779C188.172 14.5948 188.034 15.1549 187.829 15.6655H190.067V11.7194Z" fill="#010101"/>
<path d="M194.698 16.1051V11.2727H195.429V15.1302L197.909 11.2727H198.569V16.1051H197.826V12.1414L195.265 16.1051H194.698Z" fill="#010101"/>
<path fill-rule="evenodd" clip-rule="evenodd" d="M203.103 13.9885C202.778 13.8857 202.51 13.7226 202.301 13.5063C202.092 13.29 201.988 13.0242 201.988 12.7121C201.988 12.237 202.152 11.8754 202.476 11.6343C202.801 11.3933 203.274 11.2727 203.901 11.2727H205.486V16.1051H204.755V14.1126H203.737L202.76 16.1051H202.007L203.103 13.9885ZM204.751 11.6591H203.957C203.122 11.6591 202.708 12.0102 202.708 12.7121C202.708 13.0419 202.82 13.2936 203.047 13.4673C203.274 13.6411 203.569 13.7297 203.938 13.7297H204.751V11.6591Z" fill="#010101"/>
<path d="M218.455 16.1051V16.1015H219.182V13.9283L219.741 13.6765L221.248 16.1015H222.102L220.293 13.251L221.8 11.2692H221.281L219.816 13.1553L219.186 13.485V11.2727H218.455V16.1015H218.451L218.455 16.1051Z" fill="#010101"/>
<path fill-rule="evenodd" clip-rule="evenodd" d="M225.939 11.2727H225.327V18.5373L226.058 18.5196V15.7364H226.069C226.069 15.7506 226.118 15.7967 226.222 15.8783C226.327 15.9598 226.472 16.0342 226.666 16.1015C226.86 16.169 227.095 16.2044 227.374 16.2044C228.031 16.2044 228.541 15.9669 228.899 15.4882C229.257 15.0132 229.436 14.3679 229.436 13.556C229.436 12.8115 229.261 12.2264 228.903 11.8081C228.549 11.3897 228.072 11.1805 227.475 11.1805C227.069 11.1805 226.752 11.255 226.52 11.4109C226.289 11.5635 226.125 11.7123 226.032 11.8542L225.939 11.2727ZM228.65 13.5737C228.65 14.3005 228.527 14.843 228.284 15.201L228.288 15.2081C228.042 15.5662 227.658 15.7435 227.128 15.7435C226.837 15.7435 226.602 15.6938 226.431 15.5981C226.256 15.5024 226.133 15.4067 226.058 15.318V12.3115C226.058 12.2902 226.103 12.2264 226.196 12.1129C226.289 11.9995 226.423 11.8932 226.599 11.7974C226.774 11.7017 226.987 11.6521 227.229 11.6521C227.688 11.6521 228.042 11.8045 228.284 12.1059C228.527 12.4072 228.65 12.8966 228.65 13.5737Z" fill="#010101"/>
<path fill-rule="evenodd" clip-rule="evenodd" d="M232.375 15.0132C232.375 15.389 232.509 15.6797 232.781 15.8889L232.777 15.8854C233.05 16.098 233.408 16.2009 233.855 16.2009C234.172 16.2009 234.441 16.1477 234.653 16.0413C234.866 15.9349 235.026 15.8215 235.134 15.6974C235.173 15.6527 235.205 15.6144 235.231 15.5826C235.275 15.5261 235.298 15.4899 235.298 15.474H235.309C235.328 15.7471 235.388 15.9349 235.481 16.0413C235.574 16.1477 235.712 16.2009 235.887 16.2009C236.01 16.2009 236.156 16.1761 236.335 16.1229C236.388 16.1071 236.435 16.0929 236.477 16.0803L236.572 16.0509L236.609 16.0393L236.662 16.0229L236.682 16.0165L236.652 15.6867C236.626 15.701 236.57 15.7187 236.48 15.7399C236.391 15.7647 236.316 15.7754 236.257 15.7754C236.182 15.7754 236.119 15.7293 236.07 15.6407C236.022 15.5521 235.996 15.3783 235.996 15.1195V12.7511C235.996 12.1661 235.861 11.7549 235.589 11.5245C235.317 11.294 234.888 11.177 234.306 11.177C234.09 11.177 233.874 11.2089 233.661 11.2727C233.449 11.3365 233.27 11.4039 233.132 11.4748C233.087 11.497 233.048 11.5171 233.015 11.535C232.941 11.5743 232.894 11.6031 232.871 11.6201L232.953 12.0173C232.986 11.9959 233.065 11.9534 233.191 11.8861C233.318 11.8186 233.471 11.7549 233.654 11.6947C233.84 11.6343 234.019 11.6024 234.194 11.6024C234.59 11.6024 234.862 11.6875 235.019 11.8542C235.175 12.0208 235.253 12.3328 235.253 12.7901V13.3007C233.333 13.4957 232.375 14.0665 232.375 15.0132ZM235.116 15.2861C235.022 15.4067 234.888 15.5201 234.713 15.623H234.709C234.534 15.7257 234.321 15.7789 234.079 15.7789C233.788 15.7789 233.557 15.7081 233.389 15.5626C233.221 15.4173 233.135 15.2046 233.135 14.9281C233.135 14.5203 233.337 14.2261 233.732 14.0381C234.131 13.8537 234.638 13.7262 235.253 13.6623V15.0734C235.253 15.0947 235.209 15.1656 235.116 15.2861Z" fill="#010101"/>
<path d="M239.508 13.7367C239.508 14.5557 239.698 15.1727 240.079 15.584C240.459 15.9988 241 16.2044 241.704 16.2044C242.07 16.2044 242.376 16.1405 242.618 16.02C242.86 15.8995 243.043 15.7718 243.166 15.63C243.289 15.4882 243.349 15.4067 243.349 15.3819L243.025 15.1797C243.025 15.1975 242.972 15.2577 242.872 15.357C242.771 15.4563 242.626 15.552 242.439 15.6406C242.253 15.7293 242.029 15.7754 241.764 15.7754C241.294 15.7754 240.933 15.6159 240.675 15.3004C240.414 14.9847 240.288 14.4884 240.288 13.7261C240.288 12.9639 240.411 12.4214 240.653 12.0917C240.895 11.762 241.279 11.5989 241.801 11.5989C241.999 11.5989 242.189 11.6308 242.376 11.6874C242.562 11.7442 242.715 11.8045 242.834 11.8647L242.889 11.8929C242.91 11.9038 242.93 11.9141 242.947 11.9234C243.002 11.9529 243.038 11.9741 243.054 11.9853L243.148 11.5882C243.148 11.5882 243.138 11.5789 243.118 11.5678C243.099 11.5565 243.069 11.5408 243.03 11.5205L242.928 11.4677C242.782 11.3933 242.603 11.3258 242.394 11.2656C242.186 11.2053 241.962 11.1734 241.723 11.1734C241 11.1734 240.448 11.3933 240.071 11.8364C239.695 12.2796 239.508 12.9178 239.508 13.7367Z" fill="#010101"/>
<path fill-rule="evenodd" clip-rule="evenodd" d="M246.045 13.6872C246.045 14.4884 246.231 15.1053 246.601 15.545H246.604C246.973 15.981 247.525 16.2009 248.215 16.2009C248.905 16.2009 249.438 15.9775 249.815 15.5379C250.191 15.0983 250.378 14.4848 250.378 13.6872C250.378 12.8894 250.191 12.2726 249.822 11.8329C249.453 11.3968 248.916 11.177 248.211 11.177C247.507 11.177 246.97 11.3933 246.601 11.8329C246.231 12.269 246.045 12.8859 246.045 13.6872ZM249.595 13.6907C249.595 14.3927 249.483 14.9174 249.259 15.2614C249.036 15.6052 248.685 15.7789 248.211 15.7789C247.738 15.7789 247.387 15.6052 247.164 15.2614C246.94 14.9174 246.828 14.3927 246.828 13.6907C246.828 12.9887 246.94 12.464 247.164 12.12C247.387 11.7762 247.738 11.6024 248.211 11.6024C248.685 11.6024 249.036 11.7762 249.259 12.1236C249.483 12.4711 249.595 12.9887 249.595 13.6907Z" fill="#010101"/>
<path d="M254.718 11.7265V16.1051H255.449V11.7265H256.986L256.997 11.2727H253.175V11.7265H254.718Z" fill="#010101"/>
<path fill-rule="evenodd" clip-rule="evenodd" d="M260.901 11.2727H260.174V16.1051H261.717C263.041 16.1051 263.701 15.5875 263.701 14.5487C263.701 14.0417 263.519 13.673 263.161 13.4425C262.799 13.2121 262.31 13.0986 261.695 13.0986H260.901V11.2727ZM262.609 15.4492C262.4 15.6301 262.094 15.7187 261.695 15.7187L261.699 15.7223H260.905V13.4779H261.677C262.042 13.4779 262.34 13.5595 262.575 13.7191C262.81 13.8786 262.926 14.1551 262.926 14.5487C262.926 14.9706 262.818 15.2685 262.609 15.4492Z" fill="#010101"/>
<path d="M264.574 16.1051V11.2727H265.316V16.1051H264.574Z" fill="#010101"/>
</svg>
