<svg width="335" height="66" viewBox="0 0 335 66" fill="none" xmlns="http://www.w3.org/2000/svg">
<path fill-rule="evenodd" clip-rule="evenodd" d="M333.59 53.4316C333.59 53.4316 327.646 59.7197 325.754 59.4848C324.157 59.2812 323.887 59.1559 323.871 56.8223C323.857 55.1919 324.674 53.1186 325.804 50.2495C326.639 48.1299 327.646 45.575 328.615 42.4449C330.499 36.3447 328.035 33.4628 324.475 33.4159H323.696C323.696 33.4159 321.351 35.9531 320.827 37.4174C318.467 40.0722 314.326 43.8936 307.253 48.365C307.015 48.5138 306.697 48.3258 306.737 48.0517C307.088 45.6756 308.398 40.794 309.469 36.806C309.997 34.8405 310.466 33.092 310.734 31.9673C310.861 31.4191 310.337 30.9648 309.796 31.1293C306.506 32.1316 302.374 35.3189 300.665 36.7206C300.117 37.1669 299.695 37.7464 299.449 38.4042C298.077 42.1274 297.612 47.7297 297.367 50.6836C297.307 51.4068 297.26 51.9728 297.216 52.3118C294.116 55.4597 291.645 57.3 290.254 58.1144C288.744 58.9915 287.163 59.43 285.502 59.43C281.258 59.43 278.627 57.018 277.626 52.1864C288.68 48.9914 294.204 44.8332 294.204 39.7119C294.204 37.7776 293.497 36.2193 292.09 35.029C290.683 33.8387 288.816 33.2436 286.471 33.2436C281.973 33.2436 277.88 35.3658 274.185 39.6101C270.823 43.4786 269.011 47.762 268.709 52.4606C266.373 54.8881 264.585 56.5012 263.361 57.2844C262.105 58.0909 260.834 58.4902 259.546 58.4902C258.616 58.4902 257.853 58.1221 257.265 57.3939C256.677 56.6657 256.383 55.7182 256.383 54.5514C256.383 52.8441 256.82 50.542 257.694 47.6523L260.206 39.3281L266.055 38.8819L267.303 33.1654L261.978 33.4628L265.872 20.5498L255.803 22.5859L252.266 34.1677L248.682 34.3165L247.474 40.1427L250.367 39.9939L248.77 45.6164C247.991 48.1691 247.451 50.4088 247.141 52.3587C244.756 54.8411 242.937 56.4856 241.697 57.2765C240.441 58.0831 239.17 58.4825 237.882 58.4825C236.952 58.4825 236.189 58.1144 235.601 57.3861C235.013 56.6578 234.719 55.7103 234.719 54.5436C234.719 52.8365 235.156 50.5342 236.03 47.6446L238.542 39.3204L244.391 38.8741L245.639 33.1576L240.314 33.4551L244.208 20.5419L234.139 22.578L230.602 34.1598L227.018 34.3086L225.81 40.1348L228.703 39.986L227.106 45.6085C226.335 48.1379 225.794 50.3619 225.492 52.2961C222.48 55.2797 220.231 57.2139 218.729 58.0831C217.219 58.9601 215.638 59.3986 213.977 59.3986C209.733 59.3986 207.103 56.9868 206.101 52.1551C217.156 48.9602 222.679 44.802 222.679 39.6806C222.679 37.7464 221.972 36.1881 220.565 34.9978C219.159 33.8075 217.291 33.2123 214.947 33.2123C210.448 33.2123 206.356 35.3344 202.66 39.5788C199.291 43.4472 197.479 47.7385 197.185 52.4449C191.757 58.4825 187.394 61.5051 184.104 61.5051C182.951 61.5051 182.005 61.0745 181.282 60.2051C180.551 59.336 180.194 58.2004 180.194 56.7909C180.194 54.1441 180.917 50.26 182.371 45.1465C183.825 40.033 185.534 37.4801 187.489 37.4724C188.268 37.4724 188.896 37.8952 189.388 38.7331C189.881 39.5788 190.135 40.4479 190.159 41.3485C190.183 42.2491 190.374 42.7033 190.724 42.7033C191.28 42.7033 192.257 42.0377 193.664 40.7143C195.071 39.3909 195.778 38.553 195.778 38.2085C195.778 37.1669 195.285 36.0705 194.308 34.9195C193.33 33.7682 191.884 33.1966 189.977 33.1966C188.069 33.1966 186.392 33.7761 185.017 34.943C183.651 36.1097 182.331 37.9421 181.076 40.4402C180.249 35.6086 177.738 33.1966 173.542 33.1966C171.007 33.1966 168.471 34.3322 165.944 36.5952C163.417 38.8584 160.596 42.4683 157.48 47.4175C155.875 49.9469 153.292 53.369 153.292 53.369C153.292 53.369 147.348 59.6571 145.456 59.4221C143.859 59.2186 143.589 59.0932 143.573 56.7597C143.559 55.1293 144.376 53.0562 145.507 50.187C146.342 48.0673 147.348 45.5131 148.317 42.3822C150.201 36.2821 147.737 33.4002 144.177 33.3533H143.398C143.398 33.3533 141.054 35.8905 140.529 37.3548C138.169 40.0094 134.028 43.8309 126.955 48.3024C126.717 48.4512 126.399 48.2632 126.439 47.9891C126.79 45.6129 128.101 40.7314 129.171 36.7433C129.699 34.7782 130.169 33.0289 130.436 31.9046C130.563 31.3564 130.039 30.9022 129.498 31.0667C126.208 32.069 122.076 35.2561 120.367 36.6578C119.819 37.1042 119.398 37.6838 119.151 38.3415C117.779 42.0647 117.314 47.6668 117.069 50.6207C117.043 50.9368 117.019 51.2224 116.997 51.4723C116.968 51.7949 116.943 52.0578 116.918 52.249C114.804 54.332 113.167 55.8748 111.991 56.9006C110.807 57.9264 109.726 58.4433 108.748 58.4433C107.215 58.4433 106.452 57.3784 106.452 55.2483C106.452 53.1183 107.31 49.4691 109.019 43.9954L112.333 33.1183H110.219L102.534 37.3157C101.278 34.4652 99.0766 33.0479 95.9375 33.0479C93.45 33.0479 90.589 34.0894 87.3466 36.1645C84.1041 38.2475 81.4498 40.9648 79.3756 44.3321C77.7464 46.979 76.7689 49.7432 76.4192 52.6093C73.0973 56.5483 70.2204 58.5216 67.7886 58.5216C64.6971 58.5216 63.1554 56.0314 63.1554 51.0589C63.1554 46.65 64.0057 40.7378 65.6985 33.3063C67.3912 25.8749 69.2191 19.986 71.182 15.6321C72.0085 13.8232 72.4218 12.6643 72.4218 12.1396C72.4218 11.7716 72.0801 11.5835 71.4045 11.5835C69.5687 11.5835 67.3197 11.8342 64.6574 12.3275C63.8786 12.4762 62.4799 13.5804 60.4533 15.6477C58.4347 17.715 56.7023 19.8763 55.2718 22.1238C52.2598 26.8067 48.914 33.8075 45.2504 43.1418C42.7152 49.7276 40.7761 53.8153 39.4489 55.3971C40.8556 50.2522 41.5629 43.5412 41.5629 35.2718L41.4914 23.9485C41.4914 20.636 41.7139 17.3236 42.1669 14.0346C42.3179 13.1888 42.3894 12.6329 42.3894 12.3665C42.3894 11.7949 42.1351 11.5131 41.6344 11.5131C40.3549 11.5131 39.0675 11.5835 37.788 11.7166C36.5085 11.8499 35.6343 12.0299 35.1654 12.2334C34.6965 12.4449 33.4488 14.105 31.4143 17.2296C30.0077 19.4066 28.8792 21.5913 28.0209 23.7683C27.1626 25.9453 26.2964 28.8661 25.4222 32.531L24.3254 37.026C22.3943 45.0212 20.2565 50.9335 17.92 54.755C15.5835 58.5763 13.4457 60.4949 11.5146 60.4949C10.6563 60.4949 9.94899 60.2444 9.38475 59.7354C8.8205 59.2264 8.3993 58.1378 8.12114 56.4699C7.84299 54.8019 7.62046 53.7761 7.44564 53.4081C7.2708 53.04 6.90523 52.852 6.34893 52.852C5.87208 52.852 4.71975 53.6195 2.89985 55.1543C1.07994 56.6892 0.166016 58.0752 0.166016 59.3124C0.166016 60.9257 0.920992 62.3431 2.43097 63.5803C3.94092 64.8175 5.68135 65.4362 7.66815 65.4362C10.8868 65.4362 14.161 63.6743 17.5068 60.1425C20.8446 56.6187 23.8168 49.8136 26.3997 39.7354L27.3454 36.0941C29.809 26.4151 32.217 20.2522 34.5773 17.5976C32.368 23.2906 31.1839 30.1269 31.0329 38.1144C30.8819 46.1018 30.6355 51.7557 30.3017 55.0838C29.96 58.412 29.6262 60.8317 29.3004 62.3431C28.9745 63.8543 28.8076 64.6297 28.8076 64.6844C28.8076 65.1777 29.2686 65.4284 30.1984 65.4284C32.6064 65.4284 34.2992 65.2091 35.2687 64.7627C36.2383 64.3164 37.3429 63.3454 38.5827 61.8496C39.8224 60.3539 41.1258 58.412 42.4848 56.0393C43.8437 53.6587 45.8464 49.1951 48.4928 42.6328C51.1392 36.0705 53.4201 30.9648 55.3354 27.3157C57.2427 23.6665 59.6904 20.3072 62.6865 17.2374L60.501 21.098C58.2122 25.2326 56.3526 30.3306 54.9062 36.3995C53.4598 42.4683 52.7366 47.2295 52.7366 50.6985C52.7366 55.1778 53.4757 58.7565 54.938 61.4268C56.4082 64.0971 58.546 65.4362 61.3593 65.4362C65.8813 65.4362 70.88 62.578 76.3636 56.8692C76.6338 59.0227 77.357 60.8943 78.565 62.484C80.1067 64.5278 81.9902 65.5459 84.1995 65.5459C86.4088 65.5459 88.6499 64.7001 90.7718 63.0242C92.8937 61.3407 95.2143 58.733 97.7256 55.1856V56.2585C97.7256 62.4448 99.5932 65.5381 103.336 65.5381C104.918 65.5381 106.579 64.9663 108.311 63.831C109.988 62.7267 112.746 60.3853 116.568 56.8301C116.564 57.0657 116.553 57.3013 116.544 57.5381C116.535 57.7422 116.529 57.947 116.529 58.1535C116.529 59.7902 116.664 62.2726 116.942 65.6164L125.271 63.6822C125.271 61.4504 125.31 59.6883 125.382 58.3728C125.412 57.9556 125.434 57.5854 125.454 57.2351C125.52 56.1124 125.574 55.1936 125.859 53.5882C130.842 51.3172 136.81 47.1433 136.81 47.1433C136.81 47.1433 131.676 58.318 134.267 62.9461C135.546 65.2327 137.795 65.5381 139.782 65.5381C141.562 65.5381 143.573 64.802 145.814 63.3297C148.047 61.8575 150.829 59.5709 154.143 56.4778V56.2662C156.272 54.3243 158.386 51.6148 160.477 48.1222C164.545 41.3173 167.812 37.9109 170.275 37.9109C172.238 37.9109 173.216 39.2343 173.216 41.881C173.216 42.7502 172.858 45.0212 172.143 48.7174C171.428 52.4056 170.418 55.4911 169.131 57.9812C167.836 60.4715 166.357 61.7166 164.704 61.7166C163.171 61.7166 161.994 60.6046 161.16 58.3728C160.786 57.3077 160.397 56.7754 159.992 56.7754C159.714 56.7754 158.847 57.3861 157.393 58.6156C155.939 59.8371 155.208 60.6986 155.208 61.1997C155.208 62.2648 155.923 63.267 157.353 64.2068C158.784 65.1465 160.365 65.6164 162.106 65.6164C166.373 65.6164 169.767 63.1026 172.278 58.0752C173.661 63.1026 176.562 65.6164 180.98 65.6164C185.645 65.6164 191.105 62.5779 197.344 56.509C197.757 58.8034 198.726 60.7455 200.252 62.3117C202.35 64.4652 205.108 65.5459 208.525 65.5459C211.593 65.5459 214.39 64.8097 216.925 63.3375C219.373 61.9201 222.123 59.7432 225.175 56.8144C225.318 59.2655 225.977 61.278 227.161 62.8521C228.504 64.6453 230.261 65.5459 232.414 65.5459C234.568 65.5459 236.698 64.8097 239.011 63.3375C241.228 61.928 243.842 59.7588 246.847 56.8537C246.998 59.2812 247.657 61.2859 248.833 62.8521C250.176 64.6453 251.933 65.5459 254.086 65.5459C256.24 65.5459 258.37 64.8097 260.683 63.3375C262.987 61.8653 265.721 59.5945 268.868 56.509C269.281 58.8034 270.251 60.7455 271.777 62.3117C273.875 64.4652 276.633 65.5459 280.05 65.5459C283.117 65.5459 285.915 64.8097 288.45 63.3375C290.643 62.0611 296.485 57.1825 296.858 56.838C296.855 57.0249 296.847 57.2118 296.839 57.3992C296.829 57.6518 296.818 57.9052 296.818 58.1614C296.818 59.798 296.954 62.2805 297.232 65.6242L305.56 63.69C305.56 61.4582 305.6 59.6962 305.672 58.3806C305.702 57.9635 305.724 57.5934 305.744 57.2431C305.81 56.1203 305.864 55.2015 306.148 53.5959C311.131 51.325 317.1 47.1512 317.1 47.1512C317.1 47.1512 311.966 58.3259 314.557 62.9538C315.836 65.2405 318.085 65.5459 320.072 65.5459C321.852 65.5459 323.863 64.8097 326.104 63.3375C328.25 61.9201 330.904 59.7511 334.043 56.8458V52.7346C333.749 53.134 333.558 53.3845 333.558 53.3845L333.59 53.4316ZM96.4938 52.249C94.2686 56.4699 91.9003 58.5763 89.389 58.5763C88.3559 58.5763 87.5135 58.1614 86.8459 57.3313C86.1784 56.5012 85.8446 55.4206 85.8446 54.0815C85.8446 50.542 86.9651 46.6657 89.2142 42.4605C91.4632 38.2554 93.8395 36.1488 96.3587 36.1488C97.4157 36.1488 98.2581 36.5404 98.8859 37.3157C99.5137 38.0987 99.8316 39.1795 99.8316 40.5655C99.8316 44.1285 98.719 48.0205 96.4938 52.2413V52.249ZM208.064 39.9547C209.574 37.4645 211.156 36.2193 212.817 36.2193C214.573 36.2193 215.455 37.4096 215.455 39.7823C215.455 44.5827 212.237 47.8794 205.807 49.657C205.807 45.6712 206.562 42.4371 208.072 39.9468L208.064 39.9547ZM279.589 39.9547C281.099 37.4645 282.68 36.2193 284.341 36.2193C286.098 36.2193 286.98 37.4096 286.98 39.7823C286.98 44.5827 283.761 47.8794 277.332 49.657C277.332 45.6712 278.087 42.4371 279.597 39.9468L279.589 39.9547Z" fill="white"/>
<path d="M87.3974 6.81687C86.8081 6.18123 86.5135 5.22761 86.5135 3.96183C86.5135 2.69605 86.8023 1.70963 87.3858 1.02471C87.9692 0.339791 88.8242 0 89.9449 0C90.3146 0 90.6611 0.0492805 90.9846 0.142507C91.3081 0.235577 91.5854 0.339791 91.8107 0.454834C91.8836 0.492031 91.9449 0.52342 91.9946 0.549474L92.0205 0.56297L92.0715 0.590123L92.0834 0.596715L92.0961 0.603777L92.1133 0.613508C92.1387 0.628418 92.1515 0.641131 92.1515 0.641131L92.0071 1.2548C91.9667 1.22749 91.8511 1.16173 91.6663 1.0685C91.4814 0.975429 91.2446 0.882203 90.9557 0.794469C90.6669 0.706892 90.3723 0.65761 90.0661 0.65761C89.2574 0.65761 88.6624 0.909668 88.2869 1.41928C87.9115 1.92889 87.7208 2.7673 87.7208 3.94535C87.7208 5.12356 87.9172 5.89072 88.3216 6.37851C88.7202 6.86615 89.2805 7.11271 90.0084 7.11271C90.4185 7.11271 90.7651 7.04146 91.0539 6.90444C91.3428 6.76743 91.5681 6.61958 91.7241 6.46609C91.88 6.31259 91.9609 6.21952 91.9609 6.19206L92.4634 6.50454C92.4634 6.54284 92.371 6.66886 92.1804 6.88796C91.9898 7.10722 91.7067 7.3045 91.3312 7.4908C90.9557 7.6771 90.4821 7.77582 89.916 7.77582C88.8242 7.77582 87.9866 7.458 87.3974 6.81687Z" fill="white"/>
<path d="M98.7195 7.62232V0.854893H96.328V0.153495H102.249L102.232 0.854893H99.8518V7.62232H98.7195Z" fill="white"/>
<path d="M106.686 11.4636C106.547 11.4363 106.443 11.4034 106.374 11.376C106.304 11.3486 106.252 11.3266 106.229 11.3158L106.356 10.6307C106.385 10.6527 106.466 10.6801 106.593 10.7129C106.72 10.7459 106.853 10.7677 107.003 10.7677C107.488 10.7677 107.893 10.5211 108.216 10.028C108.54 9.53473 108.904 8.76757 109.302 7.72104L106.218 0.15883H107.569L109.903 6.40582L112.012 0.15883H112.849L110.123 7.74835C109.672 8.97584 109.227 9.90748 108.794 10.5486C108.361 11.1897 107.818 11.5131 107.182 11.5131C106.992 11.5131 106.83 11.4966 106.691 11.4691L106.686 11.4636Z" fill="white"/>
<path fill-rule="evenodd" clip-rule="evenodd" d="M116.592 6.9374H117.586C117.956 6.09899 118.204 5.16201 118.337 4.12082C118.47 3.07963 118.533 1.75907 118.533 0.153495H123.068V6.9374H124.171L124.062 9.86353H123.415L123.224 7.62232H117.54L117.338 9.86353H116.673L116.592 6.9374ZM121.913 0.843907H119.284C119.273 2.21924 119.209 3.38097 119.094 4.33458C118.978 5.28804 118.764 6.15376 118.447 6.9429H121.913V0.843907Z" fill="white"/>
<path d="M129.087 7.62232V0.153495H130.219V6.11547L134.061 0.153495H135.083V7.62232H133.934V1.49603L129.965 7.62232H129.087Z" fill="white"/>
<path fill-rule="evenodd" clip-rule="evenodd" d="M142.108 4.35091C141.605 4.19207 141.189 3.94001 140.866 3.60572C140.542 3.27142 140.381 2.86053 140.381 2.37823C140.381 1.64387 140.635 1.08498 141.137 0.712385C141.64 0.339791 142.374 0.153495 143.344 0.153495H145.799V7.62232H144.667V4.54269H143.09L141.576 7.62232H140.409L142.108 4.35091ZM144.661 0.750681H143.431C142.137 0.750681 141.495 1.29325 141.495 2.37823C141.495 2.88784 141.669 3.27691 142.021 3.54545C142.374 3.81399 142.83 3.951 143.402 3.951H144.661V0.750681Z" fill="white"/>
<path d="M165.89 7.62232V7.61683H167.017V4.25783L167.883 3.86876L170.217 7.61683H171.54L168.738 3.21115L171.072 0.148002H170.269L167.999 3.06315L167.022 3.57276V0.153495H165.89V7.61683H165.884L165.89 7.62232Z" fill="white"/>
<path fill-rule="evenodd" clip-rule="evenodd" d="M177.484 0.153495H176.537V11.3815L177.669 11.3541V7.05245H177.686C177.686 7.07442 177.761 7.14567 177.923 7.2717C178.085 7.39773 178.31 7.51277 178.61 7.61683C178.911 7.72104 179.275 7.77582 179.708 7.77582C180.725 7.77582 181.516 7.40872 182.071 6.66887C182.625 5.93466 182.902 4.93726 182.902 3.68246C182.902 2.53172 182.631 1.62755 182.076 0.980923C181.528 0.334298 180.788 0.0109862 179.864 0.0109862C179.234 0.0109862 178.743 0.126029 178.385 0.367101C178.027 0.602836 177.773 0.83292 177.628 1.05218L177.484 0.153495ZM181.684 3.70977C181.684 4.83321 181.493 5.67162 181.117 6.22502L181.123 6.236C180.742 6.7894 180.147 7.06343 179.327 7.06343C178.876 7.06343 178.512 6.98668 178.246 6.83868C177.975 6.69084 177.784 6.54284 177.669 6.40582V1.75907C177.669 1.72611 177.738 1.62755 177.882 1.45208C178.027 1.27677 178.235 1.11245 178.506 0.964444C178.778 0.816442 179.107 0.739851 179.483 0.739851C180.193 0.739851 180.742 0.97543 181.117 1.44125C181.493 1.90691 181.684 2.66325 181.684 3.70977Z" fill="white"/>
<path fill-rule="evenodd" clip-rule="evenodd" d="M187.454 5.93466C187.454 6.51553 187.662 6.96487 188.084 7.28818L188.078 7.28269C188.5 7.61134 189.054 7.77032 189.748 7.77032C190.239 7.77032 190.655 7.68808 190.984 7.52376C191.313 7.35928 191.562 7.18397 191.729 6.99218C191.789 6.92312 191.839 6.86395 191.878 6.81483C191.948 6.72741 191.983 6.67153 191.983 6.64689H192.001C192.029 7.06893 192.122 7.35928 192.266 7.52376C192.411 7.68808 192.624 7.77032 192.896 7.77032C193.087 7.77032 193.312 7.73203 193.589 7.64979C193.671 7.62546 193.744 7.60349 193.809 7.58403L193.957 7.53851L194.014 7.52062L194.095 7.4952L194.126 7.48531L194.08 6.9757C194.04 6.99767 193.953 7.02514 193.814 7.05794C193.676 7.09623 193.56 7.11271 193.468 7.11271C193.352 7.11271 193.254 7.04146 193.179 6.9046C193.104 6.76759 193.063 6.49905 193.063 6.09899V2.4385C193.063 1.53432 192.855 0.898683 192.434 0.542568C192.012 0.186297 191.348 0.00549309 190.447 0.00549309C190.112 0.00549309 189.777 0.0547748 189.447 0.153495C189.118 0.252058 188.841 0.356271 188.627 0.46582C188.558 0.500192 188.498 0.531268 188.446 0.558891C188.332 0.61963 188.258 0.664045 188.223 0.690412L188.35 1.30424C188.402 1.27128 188.523 1.20552 188.719 1.10146C188.916 0.997246 189.153 0.898682 189.436 0.805612C189.725 0.712385 190.002 0.663103 190.273 0.663103C190.886 0.663103 191.307 0.794625 191.55 1.05218C191.793 1.30973 191.914 1.79187 191.914 2.49876V3.2879C188.939 3.58924 187.454 4.47144 187.454 5.93466ZM191.7 6.35654C191.556 6.54284 191.348 6.71815 191.076 6.87713H191.071C190.799 7.03596 190.47 7.11821 190.094 7.11821C189.644 7.11821 189.286 7.00866 189.026 6.78391C188.766 6.55932 188.633 6.23051 188.633 5.80314C188.633 5.17284 188.945 4.71816 189.557 4.42765C190.175 4.14264 190.961 3.94551 191.914 3.84679V6.02773C191.914 6.06069 191.845 6.17024 191.7 6.35654Z" fill="white"/>
<path d="M198.505 3.96183C198.505 5.22761 198.8 6.18123 199.389 6.81687C199.978 7.458 200.816 7.77582 201.907 7.77582C202.474 7.77582 202.947 7.6771 203.323 7.4908C203.698 7.3045 203.981 7.10722 204.172 6.88796C204.363 6.66886 204.455 6.54284 204.455 6.50454L203.952 6.19206C203.952 6.21952 203.872 6.31259 203.716 6.46609C203.56 6.61958 203.334 6.76743 203.045 6.90444C202.757 7.04146 202.41 7.11271 202 7.11271C201.272 7.11271 200.712 6.86615 200.313 6.37851C199.909 5.89072 199.712 5.12356 199.712 3.94535C199.712 2.7673 199.903 1.92889 200.278 1.41928C200.654 0.909668 201.249 0.65761 202.058 0.65761C202.364 0.65761 202.658 0.706892 202.947 0.794469C203.236 0.882203 203.473 0.975429 203.658 1.0685L203.743 1.11197C203.776 1.12892 203.806 1.14478 203.833 1.15921C203.917 1.20473 203.973 1.23753 203.999 1.2548L204.143 0.641131C204.143 0.641131 204.128 0.626692 204.098 0.609585C204.067 0.592164 204.022 0.567836 203.961 0.536447L203.802 0.454834C203.577 0.339791 203.3 0.235577 202.976 0.142507C202.653 0.0492805 202.306 0 201.936 0C200.816 0 199.961 0.339791 199.377 1.02471C198.794 1.70963 198.505 2.69605 198.505 3.96183Z" fill="white"/>
<path fill-rule="evenodd" clip-rule="evenodd" d="M208.632 3.88524C208.632 5.12356 208.92 6.07701 209.492 6.7566H209.498C210.07 7.43053 210.925 7.77032 211.993 7.77032C213.062 7.77032 213.888 7.42504 214.472 6.74561C215.055 6.06619 215.344 5.11806 215.344 3.88524C215.344 2.65226 215.055 1.6988 214.483 1.01922C213.911 0.345284 213.08 0.00549309 211.988 0.00549309C210.896 0.00549309 210.064 0.339791 209.492 1.01922C208.92 1.69331 208.632 2.64677 208.632 3.88524ZM214.131 3.89073C214.131 4.97571 213.958 5.78666 213.611 6.31824C213.264 6.84967 212.721 7.11821 211.988 7.11821C211.254 7.11821 210.711 6.84967 210.364 6.31824C210.018 5.78666 209.845 4.97571 209.845 3.89073C209.845 2.8056 210.018 1.99465 210.364 1.46307C210.711 0.931641 211.254 0.663103 211.988 0.663103C212.721 0.663103 213.264 0.931642 213.611 1.46856C213.958 2.00564 214.131 2.8056 214.131 3.89073Z" fill="white"/>
<path d="M222.068 0.854893V7.62232H223.2V0.854893H225.58L225.597 0.153495H219.676V0.854893H222.068Z" fill="white"/>
<path fill-rule="evenodd" clip-rule="evenodd" d="M231.646 0.153495H230.519V7.62232H232.911C234.961 7.62232 235.984 6.82236 235.984 5.21678C235.984 4.43315 235.701 3.86327 235.146 3.507C234.586 3.15088 233.829 2.97557 232.876 2.97557H231.646V0.153495ZM234.291 6.6086C233.968 6.88812 233.494 7.02514 232.876 7.02514L232.882 7.03063H231.651V3.56177H232.847C233.413 3.56177 233.875 3.68796 234.239 3.93452C234.603 4.18109 234.782 4.60846 234.782 5.21678C234.782 5.8689 234.615 6.32923 234.291 6.6086Z" fill="white"/>
<path d="M237.336 7.62232V0.153495H238.485V7.62232H237.336Z" fill="white"/>
</svg>
