<svg width="197" height="44" viewBox="0 0 197 44" fill="none" xmlns="http://www.w3.org/2000/svg">
<path fill-rule="evenodd" clip-rule="evenodd" d="M35.1594 3.65045C36.0746 3.52056 37.0118 3.45233 37.9645 3.45233C48.8938 3.45233 57.7568 12.2975 57.7568 23.2048C57.7568 34.1121 49.0372 42.955 37.9667 42.955C26.8962 42.955 19.965 32.8818 19.7467 26.1252C19.7467 26.1252 22.06 20.9489 22.7172 18.8273C23.3744 16.7057 23.7581 13.5541 21.1956 11.5976C19.1844 12.1368 18.0112 13.4133 17.7884 15.1519C17.6076 16.5737 18.4235 17.7996 19.8107 17.2537C21.2 16.7057 20.3355 14.3729 19.1579 14.21C22.113 13.9481 22.3996 18.8295 18.7168 18.6271C17.1709 18.5412 15.9558 16.7563 16.4741 14.3134C14.8311 15.8628 14.4232 19.0166 14.4232 19.0166L13.2478 18.3233C13.2478 18.3233 13.1507 19.065 13.8322 19.624C12.5663 20.5417 11.574 20.8455 10.4537 21.0391C10.0391 21.5563 10.4228 22.0801 10.8484 22.4741C11.274 22.868 11.274 23.1409 11.2432 23.6824C11.2123 24.2216 11.1086 24.7321 10.6522 25.2251C10.1957 25.7159 10.3236 25.9602 11.091 26.7371C9.77003 27.0232 10.3478 28.0818 10.6279 28.3481C10.6547 28.3738 10.6806 28.3975 10.7054 28.4203C10.9396 28.6353 11.0785 28.7629 11.0226 29.6246C11.0088 29.8622 10.8665 30.086 10.6994 30.3488C10.6267 30.4631 10.5493 30.5849 10.4757 30.7184C10.1582 31.295 9.96631 32.0301 10.8109 32.6793C-1.10858 35.2763 -0.572694 22.5643 0.545379 20.1478C0.353515 21.4221 0.496856 23.6824 2.87195 24.9346C1.94794 23.7065 0.607131 20.0246 2.142 15.8078C2.142 15.8078 0.355728 12.2733 1.20035 8.50543C2.04275 4.73761 6.23057 2.69525 9.02466 4.58355C11.102 5.98773 10.8815 9.27575 8.99158 10.2705C7.54492 11.032 5.14999 9.87658 5.76085 7.53265C5.76085 7.53265 6.14017 8.75634 7.22957 8.72332C8.83501 8.67492 8.88573 6.02514 6.7422 6.02514C3.89299 6.02514 3.01749 11.6636 7.7412 11.6636C10.026 11.6636 11.2211 9.88934 12.6737 7.73291C14.2242 5.43097 16.0681 2.6936 19.8437 1.21411C26.6999 -1.47309 31.728 0.727718 34.8197 3.66803C34.8771 3.66473 34.9333 3.66198 34.9896 3.65924C35.0458 3.65649 35.102 3.65374 35.1594 3.65045ZM29.587 21.2462H26.4514L26.447 21.2484V30.4782C25.2873 28.395 24.625 25.9944 24.625 23.4396C24.625 15.4398 31.0987 8.95452 39.084 8.95452C43.0492 8.95452 46.6381 10.5527 49.25 13.1407H47.6855V25.483H46.6645V17.2298H46.3982L45.2848 14.8865L45.0538 13.2377L44.8227 14.8865L43.7093 17.2298H43.4343V28.0622H42.6575V16.5486H38.8178V26.8211H38.1378V28.2076H37.3611V31.3974H37.0948V34.0273H36.3665V24.9958H33.7172V28.9637H32.7204V26.7241H30.2911V30.3261H29.587V21.2462Z" fill="white"/>
<path d="M15.481 33.8334C16.5171 35.9147 15.3726 38.2122 13.2919 38.2122C12.1054 38.2122 10.7337 37.0084 11.0822 35.5866C11.4196 34.2089 13.2919 34.3409 13.2919 35.5162C13.2919 36.6914 12.1231 36.621 12.1231 36.621C13.9005 38.3596 16.3484 34.7855 13.325 33.311C12.3612 32.84 10.9829 33.1767 10.2243 33.9844C8.27707 36.062 8.81296 39.7198 11.2718 41.7137C13.7307 43.7076 17.2503 44.9247 20.9883 42.6403C19.9609 38.9943 17.5999 34.9767 15.481 33.8334Z" fill="white"/>
<path d="M15.481 33.8334L15.4795 33.8326V33.8303L15.481 33.8334Z" fill="white"/>
<path fill-rule="evenodd" clip-rule="evenodd" d="M196.824 27.4948C196.824 27.4948 194.512 29.9402 193.777 29.8488C193.155 29.7696 193.05 29.7209 193.044 28.8134C193.039 28.1794 193.356 27.3731 193.796 26.2573C194.121 25.433 194.512 24.4394 194.889 23.2222C195.622 20.8499 194.664 19.7292 193.279 19.7109H192.976C192.976 19.7109 192.064 20.6976 191.86 21.2671C190.943 22.2995 189.332 23.7856 186.582 25.5245C186.489 25.5823 186.365 25.5092 186.381 25.4026C186.517 24.4786 187.027 22.5802 187.444 21.0293C187.649 20.2649 187.831 19.585 187.935 19.1476C187.985 18.9344 187.781 18.7577 187.571 18.8217C186.291 19.2115 184.684 20.451 184.02 20.9961C183.806 21.1697 183.643 21.395 183.547 21.6508C183.013 23.0988 182.832 25.2774 182.737 26.4261C182.714 26.7074 182.695 26.9275 182.678 27.0593C181.473 28.2835 180.512 28.9992 179.971 29.3159C179.384 29.657 178.769 29.8275 178.123 29.8275C176.472 29.8275 175.449 28.8895 175.06 27.0106C179.359 25.7681 181.507 24.151 181.507 22.1594C181.507 21.4072 181.232 20.8011 180.685 20.3383C180.138 19.8754 179.412 19.6439 178.5 19.6439C176.751 19.6439 175.159 20.4692 173.722 22.1198C172.415 23.6242 171.71 25.29 171.592 27.1172C170.684 28.0612 169.988 28.6885 169.512 28.9931C169.024 29.3068 168.53 29.462 168.029 29.462C167.667 29.462 167.371 29.3189 167.142 29.0357C166.913 28.7525 166.799 28.384 166.799 27.9303C166.799 27.2664 166.969 26.3711 167.309 25.2473L168.286 22.0101L170.56 21.8366L171.045 19.6135L168.975 19.7292L170.489 14.7075L166.573 15.4993L165.198 20.0033L163.804 20.0612L163.334 22.3269L164.459 22.269L163.838 24.4556C163.535 25.4483 163.325 26.3193 163.205 27.0776C162.277 28.043 161.57 28.6825 161.088 28.99C160.599 29.3037 160.105 29.459 159.604 29.459C159.243 29.459 158.946 29.3159 158.717 29.0326C158.488 28.7494 158.374 28.381 158.374 27.9272C158.374 27.2634 158.544 26.368 158.884 25.2443L159.861 22.0071L162.135 21.8336L162.621 19.6105L160.55 19.7262L162.064 14.7044L158.148 15.4962L156.773 20.0002L155.379 20.0581L154.91 22.3238L156.035 22.266L155.413 24.4525C155.114 25.4362 154.903 26.301 154.786 27.0532C153.615 28.2135 152.74 28.9657 152.156 29.3037C151.569 29.6448 150.954 29.8153 150.308 29.8153C148.657 29.8153 147.634 28.8774 147.245 26.9984C151.544 25.7559 153.692 24.1389 153.692 22.1472C153.692 21.395 153.417 20.789 152.87 20.3261C152.323 19.8632 151.596 19.6318 150.685 19.6318C148.936 19.6318 147.344 20.457 145.907 22.1076C144.596 23.612 143.892 25.2808 143.777 27.1111C141.666 29.459 139.97 30.6345 138.69 30.6345C138.242 30.6345 137.874 30.467 137.593 30.129C137.309 29.791 137.17 29.3494 137.17 28.8012C137.17 27.7719 137.451 26.2614 138.017 24.2728C138.582 22.2842 139.247 21.2914 140.007 21.2884C140.31 21.2884 140.554 21.4529 140.745 21.7787C140.937 22.1076 141.036 22.4456 141.045 22.7958C141.055 23.1461 141.129 23.3227 141.265 23.3227C141.481 23.3227 141.861 23.0638 142.408 22.5492C142.955 22.0345 143.23 21.7087 143.23 21.5747C143.23 21.1697 143.039 20.7433 142.659 20.2957C142.278 19.848 141.716 19.6257 140.974 19.6257C140.232 19.6257 139.58 19.851 139.046 20.3048C138.514 20.7585 138.001 21.4711 137.513 22.4426C137.191 20.5637 136.215 19.6257 134.583 19.6257C133.597 19.6257 132.611 20.0673 131.628 20.9473C130.646 21.8274 129.548 23.2313 128.337 25.156C127.713 26.1396 126.708 27.4705 126.708 27.4705C126.708 27.4705 124.396 29.9158 123.661 29.8245C123.04 29.7453 122.935 29.6965 122.928 28.7891C122.923 28.155 123.241 27.3488 123.68 26.233C124.005 25.4087 124.397 24.4154 124.773 23.1978C125.506 20.8256 124.548 19.7048 123.163 19.6866H122.86C122.86 19.6866 121.949 20.6733 121.745 21.2427C120.827 22.2751 119.217 23.7612 116.466 25.5001C116.373 25.558 116.25 25.4849 116.265 25.3783C116.402 24.4542 116.911 22.5558 117.328 21.0049C117.533 20.2407 117.716 19.5604 117.82 19.1232C117.869 18.91 117.665 18.7334 117.455 18.7974C116.175 19.1871 114.568 20.4266 113.904 20.9717C113.691 21.1453 113.527 21.3707 113.431 21.6265C112.897 23.0743 112.717 25.2529 112.621 26.4017C112.611 26.5246 112.602 26.6357 112.593 26.7328C112.582 26.8583 112.572 26.9606 112.563 27.0349C111.741 27.845 111.104 28.4449 110.646 28.8439C110.186 29.2428 109.766 29.4438 109.386 29.4438C108.789 29.4438 108.492 29.0297 108.492 28.2013C108.492 27.373 108.826 25.9539 109.491 23.8252L110.779 19.5952H109.957L106.969 21.2275C106.48 20.119 105.624 19.5678 104.404 19.5678C103.436 19.5678 102.324 19.9728 101.063 20.7798C99.8017 21.5899 98.7694 22.6466 97.9628 23.9561C97.3292 24.9855 96.9491 26.0604 96.8131 27.175C95.5212 28.7068 94.4024 29.4742 93.4567 29.4742C92.2545 29.4742 91.6549 28.5059 91.6549 26.5721C91.6549 24.8575 91.9856 22.5583 92.6439 19.6683C93.3022 16.7783 94.013 14.4882 94.7764 12.795C95.0978 12.0915 95.2585 11.6409 95.2585 11.4368C95.2585 11.2937 95.1256 11.2206 94.8629 11.2206C94.149 11.2206 93.2744 11.3181 92.239 11.5099C91.9362 11.5677 91.3922 11.9971 90.6041 12.8011C89.8191 13.605 89.1454 14.4456 88.5891 15.3196C87.4178 17.1407 86.1166 19.8632 84.6919 23.4932C83.706 26.0544 82.9519 27.644 82.4358 28.2592C82.9828 26.2584 83.2579 23.6486 83.2579 20.4327L83.23 16.0292C83.23 14.741 83.3166 13.4528 83.4927 12.1738C83.5515 11.8448 83.5793 11.6287 83.5793 11.5251C83.5793 11.3028 83.4804 11.1932 83.2857 11.1932C82.7881 11.1932 82.2874 11.2206 81.7898 11.2723C81.2923 11.3242 80.9523 11.3942 80.7699 11.4733C80.5876 11.5555 80.1024 12.2012 79.3112 13.4163C78.7642 14.2629 78.3253 15.1125 77.9915 15.9591C77.6577 16.8057 77.3209 17.9416 76.9809 19.3668L76.5544 21.1149C75.8034 24.2241 74.972 26.5233 74.0634 28.0095C73.1548 29.4955 72.3234 30.2416 71.5724 30.2416C71.2386 30.2416 70.9636 30.1442 70.7441 29.9463C70.5247 29.7483 70.3609 29.325 70.2527 28.6764C70.1446 28.0277 70.058 27.6288 69.9901 27.4857C69.9221 27.3425 69.7799 27.2694 69.5636 27.2694C69.3781 27.2694 68.93 27.5679 68.2222 28.1647C67.5145 28.7617 67.1591 29.3007 67.1591 29.7818C67.1591 30.4092 67.4527 30.9604 68.0399 31.4415C68.6271 31.9227 69.3039 32.1633 70.0766 32.1633C71.3283 32.1633 72.6016 31.4781 73.9027 30.1046C75.2007 28.7342 76.3566 26.0878 77.3611 22.1685L77.7288 20.7524C78.6869 16.9884 79.6233 14.5917 80.5412 13.5594C79.6821 15.7733 79.2216 18.4319 79.1628 21.5381C79.1041 24.6443 79.0083 26.8431 78.8785 28.1373C78.7456 29.4316 78.6158 30.3726 78.4891 30.9604C78.3624 31.5481 78.2975 31.8496 78.2975 31.8709C78.2975 32.0627 78.4767 32.1602 78.8383 32.1602C79.7748 32.1602 80.4331 32.0749 80.8101 31.9014C81.1872 31.7278 81.6168 31.3502 82.0989 30.7685C82.581 30.1868 83.0879 29.4316 83.6164 28.5089C84.1448 27.5831 84.9237 25.8473 85.9528 23.2953C86.982 20.7433 87.869 18.7577 88.6138 17.3386C89.3555 15.9195 90.3074 14.6131 91.4726 13.4193L90.6227 14.9207C89.7326 16.5286 89.0094 18.5111 88.4469 20.8712C87.8844 23.2313 87.6032 25.0829 87.6032 26.4319C87.6032 28.1739 87.8906 29.5656 88.4593 30.6041C89.031 31.6425 89.8624 32.1633 90.9565 32.1633C92.715 32.1633 94.659 31.0518 96.7914 28.8317C96.8965 29.6691 97.1778 30.397 97.6475 31.0152C98.2471 31.81 98.9796 32.2059 99.8387 32.2059C100.698 32.2059 101.569 31.877 102.395 31.2253C103.22 30.5706 104.122 29.5565 105.099 28.1769V28.5942C105.099 30.9999 105.825 32.2029 107.281 32.2029C107.896 32.2029 108.542 31.9805 109.216 31.539C109.868 31.1096 110.94 30.199 112.427 28.8165C112.425 28.9081 112.421 28.9997 112.417 29.0918C112.414 29.1711 112.411 29.2508 112.411 29.3311C112.411 29.9676 112.464 30.933 112.572 32.2333L115.811 31.4811C115.811 30.6132 115.826 29.928 115.854 29.4164C115.866 29.2541 115.874 29.1102 115.882 28.9739C115.908 28.5373 115.929 28.18 116.039 27.5557C117.977 26.6725 120.298 25.0494 120.298 25.0494C120.298 25.0494 118.302 29.3951 119.309 31.1949C119.807 32.0841 120.682 32.2029 121.454 32.2029C122.146 32.2029 122.928 31.9166 123.8 31.3441C124.668 30.7715 125.75 29.8823 127.039 28.6794V28.5972C127.867 27.842 128.689 26.7883 129.502 25.43C131.084 22.7837 132.355 21.459 133.313 21.459C134.076 21.459 134.456 21.9736 134.456 23.0029C134.456 23.3409 134.317 24.2241 134.039 25.6615C133.761 27.0958 133.368 28.2957 132.868 29.2641C132.364 30.2325 131.789 30.7167 131.146 30.7167C130.55 30.7167 130.092 30.2843 129.768 29.4164C129.623 29.0022 129.471 28.7952 129.313 28.7952C129.205 28.7952 128.868 29.0326 128.303 29.5108C127.737 29.9858 127.453 30.3209 127.453 30.5157C127.453 30.9299 127.731 31.3197 128.287 31.6852C128.844 32.0506 129.459 32.2333 130.136 32.2333C131.795 32.2333 133.115 31.2557 134.092 29.3007C134.629 31.2557 135.757 32.2333 137.476 32.2333C139.29 32.2333 141.413 31.0517 143.839 28.6916C144 29.5839 144.377 30.3391 144.97 30.9482C145.786 31.7856 146.859 32.2059 148.188 32.2059C149.381 32.2059 150.468 31.9196 151.454 31.3471C152.406 30.7959 153.476 29.9493 154.662 28.8104C154.718 29.7635 154.974 30.5462 155.435 31.1583C155.957 31.8557 156.64 32.2059 157.478 32.2059C158.315 32.2059 159.144 31.9196 160.043 31.3471C160.905 30.7989 161.922 29.9554 163.09 28.8256C163.149 29.7696 163.406 30.5493 163.863 31.1583C164.385 31.8557 165.068 32.2059 165.906 32.2059C166.743 32.2059 167.572 31.9196 168.471 31.3471C169.367 30.7746 170.43 29.8915 171.654 28.6916C171.815 29.5839 172.192 30.3391 172.785 30.9482C173.601 31.7856 174.674 32.2059 176.003 32.2059C177.196 32.2059 178.284 31.9196 179.269 31.3471C180.122 30.8507 182.394 28.9535 182.539 28.8195C182.538 28.8922 182.535 28.9649 182.532 29.0378C182.528 29.136 182.524 29.2346 182.524 29.3342C182.524 29.9706 182.576 30.936 182.684 32.2364L185.923 31.4842C185.923 30.6163 185.939 29.931 185.967 29.4194C185.978 29.2572 185.987 29.1133 185.995 28.977C186.02 28.5404 186.041 28.1831 186.152 27.5587C188.09 26.6756 190.411 25.0524 190.411 25.0524C190.411 25.0524 188.414 29.3981 189.422 31.1979C189.92 32.0872 190.794 32.2059 191.567 32.2059C192.259 32.2059 193.041 31.9196 193.913 31.3471C194.747 30.7959 195.779 29.9524 197 28.8226V27.2238C196.886 27.3791 196.811 27.4765 196.811 27.4765L196.824 27.4948ZM104.62 27.0349C103.754 28.6764 102.834 29.4955 101.857 29.4955C101.455 29.4955 101.128 29.3342 100.868 29.0113C100.608 28.6885 100.478 28.2683 100.478 27.7476C100.478 26.3711 100.914 24.8636 101.789 23.2283C102.664 21.593 103.588 20.7737 104.567 20.7737C104.978 20.7737 105.306 20.926 105.55 21.2275C105.794 21.532 105.918 21.9523 105.918 22.4913C105.918 23.8769 105.485 25.3905 104.62 27.0319V27.0349ZM148.008 22.2538C148.596 21.2854 149.211 20.8011 149.856 20.8011C150.54 20.8011 150.883 21.264 150.883 22.1868C150.883 24.0536 149.631 25.3356 147.131 26.0269C147.131 24.4769 147.424 23.2192 148.011 22.2507L148.008 22.2538ZM175.823 22.2538C176.411 21.2854 177.026 20.8011 177.672 20.8011C178.355 20.8011 178.698 21.264 178.698 22.1868C178.698 24.0536 177.446 25.3356 174.946 26.0269C174.946 24.4769 175.239 23.2192 175.827 22.2507L175.823 22.2538Z" fill="white"/>
<path d="M101.082 9.36688C100.853 9.11969 100.739 8.74884 100.739 8.25659C100.739 7.76434 100.851 7.38073 101.078 7.11438C101.305 6.84802 101.637 6.71588 102.073 6.71588C102.217 6.71588 102.352 6.73504 102.477 6.7713C102.603 6.80749 102.711 6.84802 102.799 6.89276C102.827 6.90722 102.851 6.91943 102.87 6.92956L102.88 6.93481L102.9 6.94537L102.905 6.94793L102.91 6.95068L102.916 6.95446C102.926 6.96026 102.931 6.96521 102.931 6.96521L102.875 7.20385C102.859 7.19323 102.814 7.16766 102.742 7.1314C102.671 7.09521 102.578 7.05896 102.466 7.02484C102.354 6.99078 102.239 6.97161 102.12 6.97161C101.806 6.97161 101.574 7.06964 101.428 7.26782C101.282 7.466 101.208 7.79205 101.208 8.25018C101.208 8.70837 101.285 9.00671 101.442 9.19641C101.597 9.38604 101.815 9.48193 102.098 9.48193C102.257 9.48193 102.392 9.45422 102.504 9.40094C102.617 9.34765 102.704 9.29016 102.765 9.23046C102.826 9.17077 102.857 9.13458 102.857 9.1239L103.052 9.24542C103.052 9.26031 103.017 9.30932 102.942 9.39453C102.868 9.47979 102.758 9.55651 102.612 9.62896C102.466 9.70141 102.282 9.7398 102.062 9.7398C101.637 9.7398 101.311 9.61621 101.082 9.36688Z" fill="white"/>
<path d="M105.485 9.68011V7.04834H104.555V6.77557H106.858L106.851 7.04834H105.926V9.68011H105.485Z" fill="white"/>
<path d="M108.583 11.1739C108.529 11.1633 108.489 11.1505 108.462 11.1399C108.435 11.1292 108.415 11.1207 108.406 11.1165L108.455 10.85C108.466 10.8586 108.498 10.8693 108.547 10.882C108.597 10.8948 108.648 10.9033 108.707 10.9033C108.896 10.9033 109.053 10.8074 109.179 10.6157C109.304 10.4238 109.446 10.1255 109.601 9.7185L108.401 6.77765H108.927L109.835 9.20703L110.655 6.77765H110.98L109.92 9.72912C109.745 10.2065 109.572 10.5688 109.403 10.8181C109.235 11.0674 109.024 11.1932 108.776 11.1932C108.702 11.1932 108.639 11.1868 108.586 11.1761L108.583 11.1739Z" fill="white"/>
<path fill-rule="evenodd" clip-rule="evenodd" d="M112.436 9.41375H112.822C112.966 9.0877 113.063 8.72332 113.114 8.31842C113.166 7.91351 113.191 7.39996 113.191 6.77557H114.954V9.41375H115.383L115.341 10.5517H115.089L115.015 9.68011H112.804L112.726 10.5517H112.467L112.436 9.41375ZM114.505 7.04406H113.483C113.478 7.57891 113.454 8.0307 113.409 8.40155C113.364 8.77234 113.281 9.109 113.157 9.41589H114.505V7.04406Z" fill="white"/>
<path d="M117.295 9.68011V6.77557H117.735V9.09411L119.229 6.77557H119.627V9.68011H119.18V7.29766L117.637 9.68011H117.295Z" fill="white"/>
<path fill-rule="evenodd" clip-rule="evenodd" d="M122.359 8.40789C122.163 8.34613 122.001 8.2481 121.876 8.1181C121.75 7.98809 121.687 7.8283 121.687 7.64074C121.687 7.35516 121.786 7.13781 121.981 6.99292C122.177 6.84802 122.462 6.77557 122.839 6.77557H123.794V9.68011H123.354V8.48248H122.741L122.152 9.68011H121.698L122.359 8.40789ZM123.352 7.00781H122.873C122.37 7.00781 122.12 7.21881 122.12 7.64074C122.12 7.83892 122.188 7.99023 122.325 8.09466C122.462 8.19909 122.639 8.25238 122.862 8.25238H123.352V7.00781Z" fill="white"/>
<path d="M131.607 9.68011V9.67797H132.045V8.3717L132.382 8.22039L133.29 9.67797H133.804L132.715 7.96466L133.622 6.77343H133.31L132.427 7.9071L132.048 8.10528V6.77557H131.607V9.67797H131.605L131.607 9.68011Z" fill="white"/>
<path fill-rule="evenodd" clip-rule="evenodd" d="M136.116 6.77557H135.748V11.142L136.188 11.1313V9.45849H136.195C136.195 9.46704 136.224 9.49475 136.287 9.54376C136.35 9.59277 136.437 9.63751 136.554 9.67797C136.671 9.7185 136.812 9.7398 136.981 9.7398C137.376 9.7398 137.684 9.59704 137.9 9.30932C138.115 9.0238 138.223 8.63592 138.223 8.14795C138.223 7.70044 138.118 7.34881 137.902 7.09735C137.688 6.84588 137.401 6.72015 137.042 6.72015C136.797 6.72015 136.606 6.76489 136.466 6.85864C136.327 6.95031 136.228 7.03979 136.172 7.12506L136.116 6.77557ZM137.749 8.15857C137.749 8.59546 137.675 8.9215 137.529 9.13671L137.531 9.14099C137.383 9.3562 137.152 9.46276 136.833 9.46276C136.657 9.46276 136.516 9.43292 136.412 9.37536C136.307 9.31787 136.233 9.26031 136.188 9.20703V7.39996C136.188 7.38714 136.215 7.34881 136.271 7.28057C136.327 7.2124 136.408 7.14849 136.514 7.09094C136.619 7.03338 136.747 7.0036 136.893 7.0036C137.17 7.0036 137.383 7.09521 137.529 7.27636C137.675 7.45745 137.749 7.75158 137.749 8.15857Z" fill="white"/>
<path fill-rule="evenodd" clip-rule="evenodd" d="M139.993 9.0238C139.993 9.24969 140.074 9.42443 140.238 9.55017L140.236 9.54803C140.4 9.67584 140.616 9.73767 140.885 9.73767C141.076 9.73767 141.238 9.70568 141.366 9.64178C141.494 9.57782 141.591 9.50964 141.656 9.43505C141.679 9.4082 141.699 9.38519 141.714 9.36609C141.741 9.33209 141.755 9.31036 141.755 9.30078H141.761C141.773 9.4649 141.809 9.57782 141.865 9.64178C141.921 9.70568 142.004 9.73767 142.11 9.73767C142.184 9.73767 142.271 9.72277 142.379 9.69079C142.411 9.68133 142.439 9.67279 142.464 9.66522L142.522 9.64752L142.545 9.64056L142.576 9.63067L142.588 9.62683L142.57 9.42865C142.554 9.43719 142.521 9.44787 142.467 9.46063C142.413 9.47552 142.368 9.48193 142.332 9.48193C142.287 9.48193 142.249 9.45422 142.22 9.401C142.19 9.34771 142.175 9.24328 142.175 9.0877V7.66418C142.175 7.31256 142.094 7.06536 141.93 6.92688C141.766 6.78833 141.507 6.71801 141.157 6.71801C141.027 6.71801 140.896 6.73718 140.768 6.77557C140.64 6.8139 140.533 6.85443 140.449 6.89703C140.423 6.9104 140.399 6.92248 140.379 6.93322C140.335 6.95684 140.306 6.97412 140.292 6.98437L140.342 7.22308C140.362 7.21026 140.409 7.18469 140.485 7.14422C140.562 7.10369 140.654 7.06536 140.764 7.02917C140.876 6.99292 140.984 6.97375 141.09 6.97375C141.328 6.97375 141.492 7.0249 141.586 7.12506C141.68 7.22522 141.728 7.41272 141.728 7.68762V7.9945C140.571 8.11169 139.993 8.45477 139.993 9.0238ZM141.645 9.18786C141.588 9.26031 141.507 9.32849 141.402 9.39032H141.4C141.294 9.45208 141.166 9.48407 141.02 9.48407C140.845 9.48407 140.705 9.44146 140.604 9.35406C140.503 9.26672 140.452 9.13885 140.452 8.97265C140.452 8.72754 140.573 8.55072 140.811 8.43774C141.051 8.3269 141.357 8.25024 141.728 8.21185V9.05999C141.728 9.07281 141.701 9.11541 141.645 9.18786Z" fill="white"/>
<path d="M144.291 8.25659C144.291 8.74884 144.405 9.11969 144.635 9.36688C144.864 9.61621 145.189 9.7398 145.614 9.7398C145.834 9.7398 146.018 9.70141 146.164 9.62896C146.31 9.55651 146.421 9.47979 146.495 9.39453C146.569 9.30932 146.605 9.26031 146.605 9.24542L146.409 9.1239C146.409 9.13458 146.378 9.17077 146.317 9.23046C146.257 9.29016 146.169 9.34765 146.057 9.40094C145.944 9.45422 145.809 9.48193 145.65 9.48193C145.367 9.48193 145.149 9.38604 144.994 9.19641C144.837 9.00671 144.76 8.70837 144.76 8.25018C144.76 7.79205 144.835 7.466 144.981 7.26782C145.127 7.06964 145.358 6.97161 145.672 6.97161C145.791 6.97161 145.906 6.99078 146.018 7.02484C146.131 7.05896 146.223 7.09521 146.295 7.1314L146.328 7.14831C146.341 7.1549 146.352 7.16107 146.363 7.16668C146.396 7.18438 146.417 7.19714 146.427 7.20385L146.483 6.96521C146.483 6.96521 146.477 6.95959 146.466 6.95294C146.454 6.94616 146.436 6.9367 146.413 6.9245L146.351 6.89276C146.263 6.84802 146.155 6.80749 146.03 6.7713C145.904 6.73504 145.769 6.71588 145.625 6.71588C145.189 6.71588 144.857 6.84802 144.63 7.11438C144.403 7.38073 144.291 7.76434 144.291 8.25659Z" fill="white"/>
<path fill-rule="evenodd" clip-rule="evenodd" d="M148.229 8.2268C148.229 8.70837 148.341 9.07916 148.564 9.34344H148.566C148.788 9.60553 149.121 9.73767 149.536 9.73767C149.952 9.73767 150.273 9.60339 150.5 9.33917C150.727 9.07495 150.839 8.70623 150.839 8.2268C150.839 7.74731 150.727 7.37652 150.505 7.11224C150.282 6.85015 149.959 6.71801 149.534 6.71801C149.11 6.71801 148.786 6.84802 148.564 7.11224C148.341 7.37439 148.229 7.74517 148.229 8.2268ZM150.368 8.22894C150.368 8.65088 150.3 8.96624 150.165 9.17297C150.031 9.37963 149.819 9.48407 149.534 9.48407C149.249 9.48407 149.038 9.37963 148.903 9.17297C148.768 8.96624 148.701 8.65088 148.701 8.22894C148.701 7.80694 148.768 7.49157 148.903 7.28485C149.038 7.07818 149.249 6.97375 149.534 6.97375C149.819 6.97375 150.031 7.07818 150.165 7.28698C150.3 7.49585 150.368 7.80694 150.368 8.22894Z" fill="white"/>
<path d="M153.454 7.04834V9.68011H153.894V7.04834H154.82L154.827 6.77557H152.524V7.04834H153.454Z" fill="white"/>
<path fill-rule="evenodd" clip-rule="evenodd" d="M157.179 6.77557H156.741V9.68011H157.671C158.468 9.68011 158.866 9.36901 158.866 8.74463C158.866 8.43988 158.756 8.21826 158.54 8.07971C158.322 7.94122 158.028 7.87304 157.657 7.87304H157.179V6.77557ZM158.208 9.28588C158.082 9.39459 157.898 9.44787 157.657 9.44787L157.66 9.45001H157.181V8.10101H157.646C157.866 8.10101 158.046 8.15008 158.187 8.24597C158.329 8.34185 158.399 8.50805 158.399 8.74463C158.399 8.99823 158.333 9.17724 158.208 9.28588Z" fill="white"/>
<path d="M159.392 9.68011V6.77557H159.839V9.68011H159.392Z" fill="white"/>
</svg>
