<svg width="550" height="241" viewBox="0 0 550 241" fill="none" xmlns="http://www.w3.org/2000/svg">
<g clip-path="url(#clip0_88_209)">
<path d="M168.425 131.633C171.355 129.641 172.863 126.696 172.863 123.144C172.863 116.734 167.434 112.879 161.446 111.449C165.754 110.41 170.622 107.768 170.622 102.267C170.622 99.4949 169.373 96.2897 166.185 93.994C162.049 91.0487 156.534 91.0487 151.02 91.0487H139.388V134.752H151.58C157.784 134.752 163.988 134.752 168.425 131.633ZM148.392 97.026H153.389C155.716 97.026 157.999 97.026 159.766 98.412C161.144 99.4949 161.704 101.054 161.704 102.397C161.704 104.086 160.8 105.602 159.421 106.685C157.181 108.417 154.337 108.417 151.451 108.417H148.435V97.026H148.392ZM148.392 114.395H150.718C154.38 114.395 158.042 114.395 160.972 116.907C162.695 118.466 163.858 120.589 163.858 122.927C163.858 124.79 163.126 126.263 161.834 127.259C159.723 128.775 156.922 128.775 154.036 128.775H148.392V114.395ZM308.701 91.0487L291.985 134.752H299.482L303.833 123.317H321.583L326.149 134.752H335.154L317.705 91.0487H308.701ZM306.116 117.34L312.492 100.578L319.17 117.34H306.116ZM249.161 104.216C249.161 100.534 247.826 96.9827 244.724 94.5138C240.416 91.092 234.341 91.092 228.353 91.092H217.194V134.795H226.199V118.076H226.931C227.75 118.076 228.568 118.076 229.387 118.076L243.948 134.795H254.374L238.951 117.08C246.576 115.044 249.161 109.327 249.161 104.216ZM237.917 110.063C235.634 112.099 232.445 112.099 229.3 112.099H226.242V97.026H230.722C233.738 97.026 240.2 96.7661 240.2 104.216C240.2 106.252 239.597 108.547 237.917 110.063ZM410.763 128.775H386.68V114.395H405.335V108.417H386.68V97.026H410.074V91.0487H377.676V134.752H410.763V128.775ZM168.167 148.396C166.357 148.396 164.849 149.002 163.686 150.215C162.523 151.428 161.92 152.9 161.92 154.676C161.92 156.452 162.523 157.925 163.686 159.138C164.849 160.35 166.357 160.957 168.167 160.957C169.976 160.957 171.484 160.35 172.647 159.138C173.81 157.925 174.414 156.452 174.414 154.676C174.414 152.9 173.81 151.428 172.647 150.215C171.484 149.002 169.976 148.396 168.167 148.396ZM172.001 158.618C171.01 159.657 169.718 160.177 168.167 160.177C166.616 160.177 165.366 159.657 164.332 158.618C163.341 157.578 162.825 156.236 162.825 154.676C162.825 153.117 163.341 151.774 164.332 150.735C165.323 149.695 166.616 149.175 168.167 149.175C169.718 149.175 171.01 149.695 172.001 150.735C172.992 151.774 173.509 153.117 173.509 154.676C173.509 156.236 173.035 157.578 172.001 158.618ZM403.913 159.917V154.893H410.418C410.505 154.633 410.505 154.373 410.418 154.156H403.87V149.435H410.935C411.022 149.175 411.022 148.916 410.935 148.699H403.008V160.697H410.935C411.022 160.437 411.022 160.177 410.935 159.96H403.913V159.917ZM187.726 148.656H183.935V160.653H187.726C189.751 160.653 191.302 160.09 192.379 158.921C193.456 157.751 194.016 156.365 194.016 154.633C194.016 152.944 193.456 151.514 192.379 150.345C191.302 149.175 189.708 148.656 187.726 148.656ZM191.733 158.445C190.785 159.441 189.449 159.917 187.683 159.917H184.753V149.435H187.683C189.449 149.435 190.785 149.912 191.733 150.908C192.681 151.904 193.154 153.16 193.154 154.676C193.154 156.192 192.681 157.448 191.733 158.445ZM392.798 154.806C393.358 154.156 393.616 153.334 393.616 152.424C393.616 151.341 393.229 150.475 392.496 149.738C391.764 149.002 390.687 148.656 389.265 148.656H385V160.653C385.301 160.783 385.56 160.783 385.861 160.653V156.149H389.437L392.884 160.653C393.013 160.697 393.185 160.74 393.401 160.74C393.616 160.74 393.789 160.697 393.918 160.653L390.385 156.019C391.419 155.889 392.238 155.456 392.798 154.806ZM389.265 155.413H385.861V149.435H389.265C390.428 149.435 391.29 149.738 391.85 150.302C392.41 150.865 392.712 151.601 392.712 152.424C392.712 153.29 392.41 153.983 391.85 154.546C391.29 155.109 390.428 155.413 389.265 155.413ZM150.115 148.656L146.324 159.354L142.533 148.699C142.274 148.569 142.016 148.569 141.757 148.699L139 160.653C139.302 160.783 139.56 160.783 139.862 160.653L142.231 150.172L145.936 160.653C146.195 160.74 146.453 160.74 146.712 160.653L150.417 150.172L152.786 160.653C153.088 160.783 153.346 160.783 153.648 160.653L150.891 148.656C150.632 148.569 150.374 148.569 150.115 148.656ZM370.266 148.656L365.225 160.653C365.527 160.783 365.828 160.783 366.13 160.653L367.681 156.972H373.626L375.177 160.653C375.479 160.783 375.78 160.783 376.082 160.653L371.041 148.656C370.826 148.569 370.524 148.569 370.266 148.656ZM367.982 156.236L370.697 149.782L373.411 156.236H367.982ZM277.639 148.656V154.113H269.582V148.656C269.281 148.526 269.022 148.526 268.721 148.656V160.653C269.022 160.783 269.281 160.783 269.582 160.653V154.893H277.639V160.653C277.94 160.783 278.199 160.783 278.5 160.653V148.656C278.199 148.569 277.94 148.569 277.639 148.656ZM292.416 148.656L287.375 160.653C287.677 160.783 287.979 160.783 288.28 160.653L289.831 156.972H295.82L297.37 160.653C297.672 160.783 297.974 160.783 298.275 160.653L293.235 148.656C292.933 148.569 292.675 148.569 292.416 148.656ZM290.133 156.236L292.847 149.782L295.561 156.236H290.133ZM352.473 149.175C354.024 149.175 355.359 149.609 356.479 150.475C356.522 150.432 356.566 150.258 356.566 150.042C356.566 149.825 356.522 149.652 356.479 149.609C355.402 148.829 354.067 148.439 352.43 148.439C350.577 148.439 349.069 149.045 347.906 150.258C346.743 151.471 346.14 152.944 346.14 154.72C346.14 156.495 346.743 157.968 347.906 159.181C349.069 160.394 350.62 161 352.43 161C354.024 161 355.402 160.61 356.479 159.831C356.522 159.787 356.566 159.614 356.566 159.397C356.566 159.181 356.522 159.008 356.479 158.964C355.359 159.831 354.024 160.264 352.473 160.264C350.879 160.264 349.586 159.744 348.552 158.661C347.518 157.578 347.001 156.279 347.001 154.72C347.001 153.16 347.518 151.861 348.552 150.778C349.586 149.695 350.879 149.175 352.473 149.175ZM307.107 148.656V160.653C307.409 160.783 307.667 160.783 307.969 160.653V148.656C307.71 148.569 307.409 148.569 307.107 148.656ZM228.266 154.806C228.827 154.156 229.085 153.334 229.085 152.424C229.085 151.341 228.697 150.475 227.965 149.738C227.233 149.002 226.155 148.656 224.734 148.656H220.469V160.653C220.77 160.783 221.029 160.783 221.33 160.653V156.149H224.906L228.353 160.653C228.482 160.697 228.654 160.74 228.87 160.74C229.085 160.74 229.257 160.697 229.387 160.653L225.854 156.019C226.888 155.889 227.706 155.456 228.266 154.806ZM224.734 155.413H221.33V149.435H224.734C225.897 149.435 226.759 149.738 227.319 150.302C227.879 150.865 228.18 151.601 228.18 152.424C228.18 153.29 227.879 153.983 227.319 154.546C226.759 155.109 225.897 155.413 224.734 155.413ZM211.464 149.435C211.551 149.175 211.551 148.916 211.464 148.699H203.537V160.697H211.464C211.551 160.437 211.551 160.177 211.464 159.96H204.399V154.936H210.947C211.034 154.676 211.034 154.416 210.947 154.2H204.399V149.435H211.464ZM325.848 154.806C326.408 154.156 326.666 153.334 326.666 152.424C326.666 151.341 326.279 150.475 325.546 149.738C324.814 149.002 323.737 148.656 322.315 148.656H318.05V160.653C318.352 160.783 318.61 160.783 318.912 160.653V156.149H322.487L325.934 160.653C326.063 160.697 326.236 160.74 326.451 160.74C326.666 160.74 326.839 160.697 326.968 160.653L323.435 156.019C324.512 155.889 325.331 155.456 325.848 154.806ZM322.358 155.413H318.955V149.435H322.358C323.521 149.435 324.383 149.738 324.943 150.302C325.503 150.865 325.805 151.601 325.805 152.424C325.805 153.29 325.503 153.983 324.943 154.546C324.383 155.109 323.521 155.413 322.358 155.413ZM247.395 148.656V159.224L239.209 148.656C238.951 148.569 238.692 148.569 238.477 148.656V160.653C238.779 160.783 239.037 160.783 239.339 160.653V150.085L247.524 160.653C247.783 160.74 247.998 160.74 248.257 160.653V148.656C247.998 148.569 247.697 148.569 247.395 148.656ZM404.775 81L386.335 85.7212V87.497H404.775V81Z" fill="white"/>
</g>
<defs>
<clipPath id="clip0_88_209">
<rect width="550" height="241" fill="white"/>
</clipPath>
</defs>
</svg>
