<svg width="550" height="241" viewBox="0 0 550 241" fill="none" xmlns="http://www.w3.org/2000/svg">
<g clip-path="url(#clip0_88_214)">
<path d="M177.063 79C151.771 79 139 102.688 139 119.58C139 143.014 153.374 163 181.02 163C195.794 163 206.311 156.101 213.323 148.645L201.103 136.167C201.103 136.167 193.59 145.601 180.769 145.601C167.948 145.601 160.686 135.457 159.734 126.377H214.876C218.381 103.246 203.006 79 177.063 79ZM160.686 110.601C165.394 90.971 190.986 92.5435 193.44 110.601H160.686ZM281.235 80.9275L259.249 129.978L237.563 80.9275H215.376L251.887 161.377H266.611L302.971 80.9275H281.235ZM344.79 79C321.552 79 302.671 97.8188 302.671 121C302.671 144.181 321.502 163 344.79 163C368.029 163 386.91 144.181 386.91 121C386.91 97.8188 368.079 79 344.79 79ZM344.79 143.116C333.071 143.116 323.555 133.225 323.555 121C323.555 108.775 333.071 98.8841 344.79 98.8841C356.51 98.8841 366.026 108.775 366.026 121C366.026 133.225 356.51 143.116 344.79 143.116ZM386.059 83.4638H389.414V93.8623H392.419V83.4638H395.775V80.6739H386.059V83.4638ZM409.247 80.6739L404.239 88.1304L399.18 80.6739H397.377V93.8623H400.382V87.6232L403.438 91.9855H404.99L407.995 87.5725V93.8116H411V80.6232H409.247V80.6739Z" fill="white"/>
</g>
<defs>
<clipPath id="clip0_88_214">
<rect width="550" height="241" fill="white"/>
</clipPath>
</defs>
</svg>
