<svg width="550" height="241" viewBox="0 0 550 241" fill="none" xmlns="http://www.w3.org/2000/svg">
<g clip-path="url(#clip0_88_211)">
<path fill-rule="evenodd" clip-rule="evenodd" d="M176.633 93H128V147.399H176.633V93ZM153.645 99.5629C154.821 97.8179 158.387 99.7905 157.097 101.611C155.807 103.432 152.469 101.308 153.645 99.5629ZM149.206 96.7936C151.368 96.1867 152.886 100.17 150.724 100.739C148.561 101.346 146.627 97.5144 149.206 96.7936ZM144.578 95.2383C146.816 94.2519 148.789 98.6145 146.475 99.6388C144.161 100.663 142.757 96.0728 144.578 95.2383ZM139.229 94.5175C141.24 93.4553 144.578 97.5523 142.074 99.1456C139.571 100.777 137.37 95.5038 139.229 94.5175ZM137.901 103.281C133.691 106.467 129.707 98.6525 133.046 96.3005C136.346 93.9485 141.809 100.246 137.901 103.281ZM157.4 123.121C154.479 117.734 150.989 115.382 146.361 115.306C141.733 115.23 138.091 112.385 137.37 108.136C136.65 103.925 141.278 102.712 147.992 102.218C154.707 101.725 162.332 104.077 164.039 110.754C164.675 113.242 165.074 115.714 165.468 118.153L165.468 118.153C166.131 122.259 166.778 126.269 168.515 130.101C168.825 130.783 169.137 131.449 169.443 132.099L169.443 132.099C171.875 137.272 173.841 141.454 169.729 144.858C165.101 148.689 158.614 142.696 159.259 136.095C159.904 129.532 159.904 127.749 157.4 123.121ZM410.316 107.378H409.443V109.161H410.316C411.113 109.161 411.53 108.857 411.53 108.212C411.53 107.909 411.416 107.681 411.264 107.567C411.113 107.454 410.771 107.378 410.316 107.378ZM410.885 109.995L413.237 113.068H411.378L409.368 110.147V113.068H407.888V106.05H410.695C411.416 106.05 411.947 106.202 412.327 106.467C412.744 106.771 412.971 107.264 412.971 107.947C412.971 108.592 412.782 109.085 412.402 109.464C412.023 109.806 411.53 109.995 410.885 109.995ZM404.853 109.464C404.853 106.543 407.205 104.191 410.126 104.191C413.047 104.191 415.399 106.543 415.399 109.464C415.399 112.385 413.047 114.737 410.126 114.737C407.205 114.737 404.853 112.385 404.853 109.464ZM364.907 124.676C364.945 132.832 365.818 141.216 371.66 141.254C378.412 141.102 378.526 129.684 378.412 124.411C378.26 116.292 377.388 107.643 371.66 107.643C365.856 107.643 364.869 116.255 364.907 124.676ZM387.251 109.502C394.231 121.907 391.348 148.348 371.28 148.424C359.027 148.348 352.123 137.309 352.085 125.018C352.085 98.7663 378.033 93.076 387.251 109.502ZM326.099 128.09L321.888 147.703V147.665H311.077L299.848 102.256H312.594L318.247 127.597H318.36L322.951 113.865L320.826 106.884L330.31 104.267L336.759 128.659H336.873L343.436 96.2625L354.589 93.3415L341.956 147.703H330.424L326.213 128.09H326.099ZM261.305 147.703V102.294H274.621V119.138H283.232V102.294H296.206V147.703H283.232V128.735H274.621V147.703H261.305ZM242.717 120.238H255.236V128.318H242.717V140.533H258.081V147.703H229.781V102.294H256.867V108.743H242.717V120.238ZM416.386 109.464C416.386 106.012 413.578 103.205 410.126 103.205C409.178 103.205 408.267 103.394 407.433 103.812V102.294H394.762V147.703H422V139.281H407.433V115.116C408.267 115.496 409.178 115.723 410.126 115.723C413.578 115.723 416.386 112.916 416.386 109.464ZM207.665 120.731H224.849V145.579C219.159 148.576 208.461 149.183 201.254 146.527C186.952 141.254 185.359 123.766 192.415 112.309C198.826 101.953 212.179 97.4006 224.66 102.332L224.887 108.25C214.645 104.684 205.996 108.098 203.075 114.889C196.853 129.342 203.492 141.52 212.862 141.595V128.015H207.665V120.731Z" fill="white"/>
</g>
<defs>
<clipPath id="clip0_88_211">
<rect width="550" height="241" fill="white"/>
</clipPath>
</defs>
</svg>
