<svg width="550" height="241" viewBox="0 0 550 241" fill="none" xmlns="http://www.w3.org/2000/svg">
<g clip-path="url(#clip0_88_215)">
<path fill-rule="evenodd" clip-rule="evenodd" d="M333.417 117.705C336.318 115.186 338.65 112.078 340.258 108.588C341.866 105.098 342.713 101.306 342.743 97.4633C342.743 81.8625 328.971 69.2158 311.984 69.2158C294.996 69.2158 281.223 81.8625 281.223 97.4633C281.254 101.306 282.101 105.098 283.71 108.588C285.318 112.078 287.651 115.186 290.553 117.705C287.651 120.224 285.318 123.332 283.71 126.822C282.101 130.312 281.253 134.104 281.223 137.946C281.223 153.548 294.995 166.195 311.984 166.195C328.973 166.195 342.743 153.546 342.743 137.946C342.713 134.104 341.866 130.312 340.258 126.822C338.65 123.332 336.318 120.224 333.417 117.705ZM311.99 147.97C305.961 147.97 301.076 143.482 301.076 137.946C301.076 132.411 305.962 127.924 311.99 127.924C318.017 127.924 322.902 132.411 322.902 137.946C322.902 143.482 318.012 147.97 311.99 147.97ZM311.99 107.487C305.961 107.487 301.076 102.999 301.076 97.4633C301.076 91.9276 305.962 87.4415 311.99 87.4415C318.017 87.4415 322.902 91.9293 322.902 97.4633C322.902 102.997 318.012 107.487 311.99 107.487Z" fill="white"/>
<path d="M252.115 73.05L228.617 103.129L241.2 119.219L252.115 105.247V162.365H271.938V73.0427H252.115V73.05Z" fill="white"/>
<path d="M214.211 73.0436H239.366L203.847 118.505L238.116 162.366H212.96L181.677 122.326V162.366H161.854V73.0436H181.677V114.684L214.211 73.0436Z" fill="white"/>
<path fill-rule="evenodd" clip-rule="evenodd" d="M376.999 118.005C377.205 117.975 377.412 117.952 377.62 117.936C377.705 117.929 377.791 117.924 377.876 117.92C377.991 117.914 378.107 117.911 378.223 117.909C383.46 117.909 387.723 122.291 387.723 127.679C387.723 133.066 383.463 137.449 378.228 137.449C376.873 137.445 375.533 137.136 374.287 136.54L369.639 143.22C370.822 144.07 371.798 145.233 372.481 146.605C373.163 147.977 373.532 149.516 373.553 151.085C373.553 156.473 369.294 160.856 364.058 160.856C358.822 160.856 354.562 156.472 354.562 151.085C354.562 145.698 358.822 141.316 364.058 141.316C364.61 141.321 365.16 141.376 365.702 141.481C366.146 141.567 366.584 141.686 367.015 141.837L371.86 134.875C370.929 134.034 370.169 132.982 369.63 131.787C369.054 130.512 368.746 129.107 368.728 127.679C368.75 126.088 369.127 124.529 369.826 123.142C370.503 121.8 371.46 120.661 372.616 119.821L368.738 114.603C367.362 115.373 365.844 115.779 364.303 115.786C359.067 115.786 354.808 111.405 354.808 106.017C354.808 100.629 359.067 96.2452 364.303 96.2452C365.564 96.2452 366.814 96.5089 367.988 97.0223L372.511 90.6949C371.46 89.8439 370.598 88.735 369.991 87.4534C369.367 86.1339 369.031 84.6686 369.011 83.177C369.011 77.7898 373.272 73.4077 378.505 73.4077C383.739 73.4077 387.999 77.7874 387.999 83.1754C387.999 88.5632 383.74 92.9454 378.503 92.9454C377.217 92.9464 375.943 92.6735 374.748 92.1419L370.238 98.4524C371.271 99.2489 372.127 100.297 372.741 101.519C373.356 102.74 373.712 104.101 373.784 105.498C373.855 106.896 373.64 108.294 373.155 109.585C372.669 110.876 371.926 112.026 370.981 112.949L375.103 118.496C375.72 118.264 376.355 118.1 376.999 118.005ZM378.501 77.3609C375.224 77.3609 372.555 79.9706 372.555 83.1761C372.557 86.3826 375.221 88.9915 378.501 88.9915C381.781 88.9915 384.451 86.3817 384.451 83.1761C384.451 79.9706 381.779 77.3609 378.501 77.3609ZM358.358 106.014C358.358 109.22 361.024 111.83 364.304 111.83C367.583 111.83 370.25 109.222 370.25 106.014C370.25 102.807 367.58 100.198 364.304 100.198C361.027 100.198 358.358 102.809 358.358 106.014ZM364.057 156.9C367.335 156.9 370.003 154.29 370.003 151.083C370.003 147.879 367.334 145.268 364.057 145.268C360.781 145.268 358.111 147.876 358.111 151.083C358.111 154.29 360.78 156.9 364.057 156.9ZM372.277 127.679C372.277 130.885 374.944 133.495 378.223 133.495C381.505 133.495 384.169 130.885 384.169 127.679C384.169 124.474 381.5 121.864 378.223 121.864C374.946 121.864 372.277 124.474 372.277 127.679Z" fill="white"/>
</g>
<defs>
<clipPath id="clip0_88_215">
<rect width="550" height="241" fill="white"/>
</clipPath>
</defs>
</svg>
