<svg width="550" height="241" viewBox="0 0 550 241" fill="none" xmlns="http://www.w3.org/2000/svg">
<g clip-path="url(#clip0_88_213)">
<path d="M213.761 92.5803C213.761 102.114 213.777 110.972 213.803 118.238H211.445C211.418 110.97 211.403 102.112 211.403 92.5803V50.37H184.024L184.028 118.238H181.67L181.665 48H213.761V92.5803Z" fill="white"/>
<path d="M234.036 118.238H230.878L234.199 114.49C245.513 101.719 248.962 97.8325 249.729 96.9926C250.11 96.5742 251.337 95.1747 252.455 93.8827L254.486 91.5334L269.853 91.5244C274.911 91.5213 279.419 91.5429 282.223 91.5785L282.603 91.5836L282.863 91.5873C284.355 91.6097 285.22 91.6365 285.22 91.6658C285.22 91.6883 285.053 91.897 284.755 92.2516L284.479 92.5777L284.145 92.9678L283.704 93.4798L283.283 93.9643C282.419 94.9575 281.329 96.1962 280.148 97.5251C274.024 104.418 266.589 112.807 261.787 118.238H258.632C263.297 112.959 271.645 103.537 278.389 95.9468C279.017 95.2395 279.619 94.5586 280.174 93.9275C277.448 93.9047 273.822 93.892 269.854 93.8944L255.562 93.9027L254.235 95.4372C253.121 96.7256 251.873 98.1489 251.467 98.5947C250.716 99.4174 247.286 103.282 235.961 116.066L234.036 118.238Z" fill="white"/>
<path d="M267.798 163.698H264.625L265.138 164.273L265.582 164.769C268.056 167.515 272.521 172.561 276.371 176.945C277.759 178.525 279.066 180.017 280.168 181.282C277.449 181.297 273.837 181.296 269.884 181.275L255.581 181.202L253.56 178.94C252.069 177.272 247.095 171.662 242.505 166.473L240.05 163.698H236.892C238.053 165.008 239.363 166.488 240.742 168.047C245.331 173.236 250.31 178.85 251.805 180.523L254.524 183.567L269.872 183.645C274.915 183.671 279.409 183.666 282.212 183.636L282.863 183.628C284.355 183.608 285.22 183.58 285.22 183.545C285.22 183.515 284.647 182.839 283.695 181.738L283.274 181.252C279.624 177.042 271.759 168.11 267.798 163.698Z" fill="white"/>
<path d="M211.334 163.698H213.693L213.61 193L210.43 192.907C204.837 192.743 198.853 191.17 194.433 188.701C191.848 187.258 188.198 183.597 186.555 180.801C185.079 178.289 183.629 174.298 183.01 171.044L183.008 171.034C182.863 170.271 182.733 169.59 182.617 168.907C182.372 167.455 182.19 165.992 182.055 163.698H184.417C184.605 166.812 184.884 168.278 185.298 170.455L185.326 170.599C185.901 173.62 187.266 177.349 188.586 179.596C189.273 180.766 190.452 182.223 191.807 183.581C193.169 184.948 194.552 186.057 195.579 186.63C199.635 188.895 205.243 190.384 210.499 190.538L211.258 190.56L211.334 163.698Z" fill="white"/>
<path d="M144.004 153.41L139 153.555V127.288L144.004 127.434L144.261 137.663L145.81 136.078C146.663 135.207 148.042 133.754 148.876 132.854C149.711 131.95 151.243 130.331 152.283 129.252L154.172 127.293L160.942 127.434L150.19 138.392L150.716 138.966C151.005 139.282 151.634 140.093 152.114 140.774C152.594 141.45 153.301 142.417 153.686 142.918C154.071 143.419 154.68 144.255 155.038 144.775C155.267 145.106 155.536 145.479 155.753 145.769C155.878 145.935 155.986 146.074 156.061 146.161C156.868 147.119 161.327 153.23 161.327 153.38C161.327 153.463 159.902 153.536 158.161 153.536H154.994L153.092 150.872C152.046 149.408 150.902 147.828 150.548 147.357C150.328 147.064 149.843 146.395 149.289 145.621C148.959 145.159 148.605 144.66 148.268 144.182L146.63 141.858L144.144 144.542L144.004 153.41Z" fill="white"/>
<path d="M183.654 153.536H164.15V127.307H183.398V131.838L169.155 131.97V137.522L181.345 137.658V142.179L169.155 142.31V148.869L183.654 149.005V153.536Z" fill="white"/>
<path d="M189.518 140.546C187.143 133.472 185.199 127.599 185.197 127.497C185.196 127.39 186.352 127.307 187.766 127.307C190.188 127.307 190.353 127.336 190.59 127.871C190.729 128.187 191.481 130.599 192.261 133.234C193.581 137.692 194.716 141.445 195.197 142.942C195.308 143.288 195.603 144.255 195.851 145.086C196.1 145.918 196.356 146.768 196.42 146.977C196.505 147.25 196.613 147.177 196.801 146.725C197.077 146.068 200.274 135.698 201.078 132.854C201.334 131.95 201.818 130.336 202.155 129.262L202.768 127.307H205.401C206.85 127.307 208.035 127.366 208.035 127.438C208.035 127.516 207.5 129.189 206.845 131.163C201.005 148.762 199.764 152.476 199.554 152.977C199.321 153.531 199.216 153.551 196.574 153.483L193.835 153.41L189.518 140.546Z" fill="white"/>
<path d="M211.08 151.076C211.038 148.125 211.041 133.53 211.084 129.889L211.115 127.307H215.99V153.536H211.115L211.08 151.076Z" fill="white"/>
<path d="M221.068 149.185C220.948 144.979 220.947 135.596 221.066 130.015L221.124 127.307H223.99C226.298 127.307 226.949 127.385 227.326 127.72C227.409 127.795 227.487 127.874 227.555 127.95C227.698 128.111 227.796 128.259 227.796 128.328C227.796 128.435 228.853 130.317 230.146 132.514C230.836 133.688 231.541 134.893 232.101 135.857C232.589 136.698 232.967 137.356 233.13 137.648C233.479 138.27 234.309 139.69 234.976 140.798C235.642 141.907 236.58 143.497 237.06 144.328L237.933 145.845L238.068 127.307H243.194V153.551L236.948 153.41L235.857 151.591C235.256 150.595 234.428 149.175 234.017 148.441C233.246 147.06 230.449 142.286 227.698 137.648L226.128 134.998L225.993 153.536H221.192L221.068 149.185Z" fill="white"/>
<path d="M257.126 140.672C257.096 133.666 257.121 127.793 257.182 127.618C257.264 127.39 258.259 127.307 260.974 127.307H264.655L265.244 129.388C265.568 130.53 266.095 132.373 266.416 133.486C266.606 134.144 267.031 135.621 267.531 137.36L268.613 141.134C269.536 144.352 270.306 146.623 270.413 146.428C270.515 146.248 270.782 145.417 271.005 144.581C271.11 144.188 271.273 143.602 271.453 142.96C271.655 142.243 271.878 141.458 272.07 140.798C272.432 139.549 272.951 137.682 273.223 136.646C273.494 135.611 273.826 134.478 273.959 134.123C274.093 133.773 274.577 132.096 275.034 130.394L275.866 127.307H283.486V153.536H278.61V144.153C278.61 138.883 278.513 134.877 278.388 135.013C278.267 135.144 278.03 135.762 277.862 136.384C277.282 138.543 276.582 141.061 275.935 143.322C274.521 148.261 273.691 151.193 273.398 152.277L273.092 153.41H267.486L266.659 150.386C266.204 148.718 265.463 146.054 265.012 144.454C263.417 138.81 263.193 138.008 262.784 136.457C262.557 135.592 262.271 134.945 262.15 135.018C262.028 135.096 261.928 139.296 261.928 144.352V153.555L257.181 153.41L257.126 140.672Z" fill="white"/>
<path d="M288.717 146.778C288.446 145.757 288.362 143.283 288.362 136.374V127.307H293.238L293.241 135.82C293.244 144.999 293.405 146.428 294.57 147.673C296.271 149.491 299.743 149.749 301.904 148.217C302.214 147.998 302.729 147.26 303.049 146.579C303.615 145.373 303.634 145.081 303.708 136.311L303.784 127.288L308.764 127.434V136.384C308.764 146.414 308.666 147.221 307.154 149.734C305.345 152.739 302.228 154.192 298.027 153.983C292.882 153.726 289.958 151.465 288.717 146.778Z" fill="white"/>
<path fill-rule="evenodd" clip-rule="evenodd" d="M313.512 140.589C313.512 133.467 313.589 127.565 313.683 127.473C314.025 127.137 327.428 127.293 328.782 127.648C332.872 128.722 334.813 131.167 334.813 135.246C334.813 137.522 333.962 139.374 332.472 140.346C331.925 140.701 331.477 141.017 331.477 141.041C331.477 141.071 331.914 141.547 332.448 142.101C333.696 143.39 334.055 144.615 334.197 148.081C334.26 149.622 334.359 151.484 334.416 152.214L334.519 153.536H332.115C330.471 153.536 329.646 153.439 329.508 153.22C329.396 153.05 329.234 151.197 329.146 149.112C329.057 146.997 328.853 145.077 328.684 144.766C328.075 143.647 327.181 143.448 322.764 143.448H318.645V153.536H313.512V140.589ZM329.354 137.167C330.446 135.562 329.868 133.131 328.211 132.354C327.743 132.135 325.977 131.979 323.072 131.901L318.645 131.78V138.907H322.815C327.519 138.907 328.316 138.693 329.354 137.167Z" fill="white"/>
<path fill-rule="evenodd" clip-rule="evenodd" d="M344.297 153.536H339.432V127.307H345.966C352.002 127.307 352.615 127.346 353.987 127.842C356.075 128.6 357.52 129.835 358.461 131.668C359.175 133.059 359.252 133.433 359.261 135.616C359.27 137.74 359.188 138.193 358.561 139.476C357.625 141.382 356.157 142.787 354.363 143.492C353.127 143.973 352.261 144.08 348.671 144.197L344.436 144.328L344.297 153.536ZM354.188 135.694C354.188 133.929 354.16 133.841 353.236 132.937L352.283 131.999L348.428 131.892C345.26 131.804 344.548 131.848 344.433 132.14C344.356 132.339 344.326 134.084 344.365 136.019L344.436 139.539L347.645 139.612C353.083 139.739 354.188 139.077 354.188 135.694Z" fill="white"/>
<path d="M367.909 153.536H363.043V127.307H367.908L368.047 137.774H379.339V127.434L384.343 127.288V153.555L379.339 153.41L379.427 148.781C379.475 146.234 379.44 143.764 379.35 143.288L379.186 142.427L368.047 142.563L367.909 153.536Z" fill="white"/>
<path d="M389.348 131.561C388.148 129.442 387.167 127.618 387.167 127.507C387.167 127.395 388.41 127.307 389.93 127.307H392.694L395.384 132.621C396.863 135.543 398.196 138.037 398.346 138.159C398.528 138.309 399.553 136.574 401.426 132.942C402.97 129.947 404.356 127.453 404.507 127.395C404.658 127.336 405.955 127.317 407.39 127.361L410 127.434L408.516 130.078C406.894 132.976 403.75 138.674 402.083 141.737L401.025 143.676V153.536H395.892V143.297L393.711 139.442C392.511 137.322 391.529 135.548 391.529 135.504C391.529 135.455 390.547 133.686 389.348 131.561Z" fill="white"/>
<path d="M252.818 153.41L247.557 153.555V148.222L252.818 148.368V153.41Z" fill="white"/>
</g>
<defs>
<clipPath id="clip0_88_213">
<rect width="550" height="241" fill="white"/>
</clipPath>
</defs>
</svg>
