<svg width="550" height="241" viewBox="0 0 550 241" fill="none" xmlns="http://www.w3.org/2000/svg">
<g clip-path="url(#clip0_88_212)">
<path fill-rule="evenodd" clip-rule="evenodd" d="M199.379 70C184.823 70 170.921 81.1212 170.921 96.65C170.921 112.135 183.115 123.226 199.379 123.226C218.811 123.226 228.564 109.429 228.564 96.65C228.564 83.1235 218.365 70 199.379 70ZM199.379 117.941C188.373 117.941 178.102 109.11 178.102 96.6516C178.102 82.9236 190.317 75.2741 199.379 75.3394C214.663 75.4401 221.7 87.5472 221.7 96.6516C221.7 107.627 211.826 117.941 199.379 117.941ZM128.03 77.4183V119.756H166.477V115.168H133.921V77.4183H128.03ZM348.916 77.4183H357.205L378.754 119.755H371.321L365.717 108.872H340.134L334.676 119.755H327.157L348.916 77.4183ZM353.004 83.3823L342.945 103.392H363.037L353.004 83.3823ZM298.735 168.077C299.871 169.46 301.615 170.109 303.602 170.109C305.089 170.109 307.031 169.721 307.031 168.395C307.031 167.341 305.838 167.039 303.703 166.624L301.906 166.277C299.312 165.816 297.051 164.994 297.051 162.533C297.051 159.71 300.306 158.34 303.316 158.34C306.083 158.34 308.351 159.192 310.044 161.036L307.538 162.605C306.776 161.41 305.277 160.689 303.302 160.689C301.56 160.689 300.234 161.239 300.234 162.172C300.234 163.257 301.64 163.523 303.367 163.85L303.562 163.887L305.543 164.235C307.926 164.681 310.189 165.488 310.189 168.037C310.189 171.323 306.474 172.475 303.117 172.475C300.45 172.475 297.692 171.482 296.13 169.638L298.735 168.077ZM246.237 158.687H239.799L239.797 172.125H242.894V167.574H246.468C249.637 167.574 251.898 165.845 251.898 163.208C251.898 160.63 250.026 158.687 246.237 158.687ZM245.878 165.456H242.896V160.788H245.764C247.506 160.788 248.702 161.308 248.702 163.208C248.702 164.52 247.766 165.456 245.878 165.456ZM263.376 158.687H259.853L254.464 172.127H257.635L258.542 169.52H264.666L265.595 172.127H268.784L263.376 158.687ZM261.597 161.135H261.64L263.858 167.27H259.349L261.597 161.135ZM272.501 158.687H279.23C282.643 158.687 284.688 160.401 284.688 162.72C284.688 165.742 282.261 166.463 281.482 166.695L281.478 166.696L285.079 172.127H281.557L278.438 167.187H275.529V172.127H272.503L272.501 158.687ZM275.527 164.939H278.869C280.38 164.939 281.505 164.187 281.505 162.922C281.505 161.696 280.513 160.905 278.388 160.905H275.527V164.939ZM289.206 158.687H292.221V172.127H289.206V158.687ZM155.442 92.3998L161.551 77.4183H167.903L159.851 92.3998H155.442ZM278.108 89.6133C278.108 99.0056 267.567 102.008 267.567 102.008L280.34 119.756H272.839L259.854 102.008H242.294V119.755H236.3V77.4184H265.01C265.01 77.4184 278.108 77.2451 278.108 89.6133ZM242.228 96.9308H263.31C263.31 96.9308 271.55 97.3781 271.55 89.5771C271.55 82.2733 263.31 82.4531 263.31 82.4531L242.228 82.4313V96.9308ZM383.553 77.4691V119.799H422V115.232H389.46V77.4828L383.553 77.4691ZM288.794 119.741V77.4546L326.277 77.4183V82.0644H295.204V95.5829H318.6V100.417H295.204V115.096H326.263V119.741H288.794ZM308.25 70.5546L303.43 76.014L318.706 70.5546H308.25ZM165.91 134.509C168.242 134.509 169.892 135.012 169.892 136.691C169.892 138.333 168.242 138.836 165.91 138.836H160.271V134.509H165.91ZM142.608 134.509H136.472V138.792H142.248C144.387 138.792 145.87 138.158 145.87 136.645C145.87 135.255 144.927 134.509 142.608 134.509ZM308.212 139.324C308.212 136.557 309.914 134.087 313.659 134.087C317.39 134.087 319.089 136.558 319.087 139.324C319.087 142.118 317.39 144.611 313.659 144.611C309.91 144.611 308.212 142.118 308.212 139.324ZM189.31 134.087C185.595 134.087 183.894 136.557 183.894 139.324C183.894 142.118 185.592 144.611 189.31 144.611C193.049 144.611 194.757 142.118 194.757 139.324C194.756 136.558 193.047 134.087 189.31 134.087ZM128 150.719V127.908H421.885V150.719H128ZM136.472 140.248H143.213C145.675 140.248 148.335 139.122 148.335 136.689C148.335 133.933 145.72 133.009 143.422 133.009H134.008V145.621H136.472V140.248ZM165.123 140.291L170.194 145.621L173.218 145.621L168.019 140.173C171.274 139.859 172.412 138.285 172.412 136.689C172.412 133.815 169.3 133.009 166.319 133.009H157.769V145.621H160.27V140.291H165.123ZM181.704 139.324C181.704 143.271 184.591 145.965 189.31 145.965C194.02 145.965 196.915 143.273 196.918 139.324C196.918 135.413 194.022 132.734 189.31 132.734C184.591 132.734 181.704 135.413 181.704 139.324ZM208.008 134.508H217.616V133.009H205.494V145.621H208.008V139.698H216.903V138.231H208.008V134.508ZM228.32 145.621H241.845V144.164H230.796V139.856H240.151V138.358H230.796V134.507H241.587V133.009H228.32V145.621ZM251.183 145.319C252.441 145.575 253.73 145.823 255.07 145.823C258.838 145.823 261.929 144.769 261.929 142.121C261.929 139.775 259.328 138.937 257.077 138.211C255.36 137.657 253.846 137.169 253.846 136.128C253.846 134.839 255.639 134.45 257.16 134.45C258.541 134.45 259.292 134.623 260.703 134.984L261.049 133.324C259.768 133.01 258.283 132.865 257.044 132.865C253.63 132.865 250.994 134.059 250.994 136.287C250.994 138.393 253.365 139.135 255.537 139.814C257.374 140.388 259.069 140.918 259.069 142.191C259.069 143.692 256.914 144.254 255.382 144.254C254.021 144.254 252.407 143.921 251.457 143.647L251.183 145.319ZM271.896 145.319C273.136 145.575 274.431 145.823 275.757 145.823C279.534 145.823 282.643 144.769 282.641 142.121C282.641 139.775 280.035 138.937 277.78 138.211C276.06 137.657 274.544 137.169 274.544 136.128C274.544 134.839 276.331 134.45 277.817 134.45C279.228 134.45 279.977 134.623 281.39 134.984L281.75 133.324C280.453 133.01 278.958 132.865 277.701 132.865C274.316 132.865 271.664 134.059 271.664 136.287C271.664 138.393 274.046 139.135 276.228 139.814C278.073 140.388 279.776 140.918 279.776 142.191C279.776 143.692 277.63 144.254 276.074 144.254C274.698 144.254 273.062 143.921 272.155 143.647L271.896 145.319ZM293.277 145.621H295.781V133.009H293.277V145.621ZM306.068 139.324C306.068 143.271 308.963 145.965 313.66 145.965C318.369 145.965 321.263 143.273 321.266 139.324C321.266 135.413 318.37 132.734 313.66 132.734C308.963 132.734 306.068 135.413 306.068 139.324ZM342.239 145.621H344.768L344.764 145.621V133.009H342.409V142.984H342.351L332.396 133.009H329.847V145.621H332.18V135.701H332.228L342.239 145.621ZM368.002 145.621H370.53V133.009H368.182V142.984H368.139L358.126 133.009H355.605V145.621H357.916V135.701H357.997L368.002 145.621ZM381.364 145.621H394.889H394.89V144.164H383.856V139.856H393.22V138.358H383.856V134.507H394.647V133.009H381.364V145.621ZM404.633 145.621H416.569V144.166H407.147V133.009H404.633V145.621Z" fill="white"/>
</g>
<defs>
<clipPath id="clip0_88_212">
<rect width="550" height="241" fill="white"/>
</clipPath>
</defs>
</svg>
