<svg width="550" height="241" viewBox="0 0 550 241" fill="none" xmlns="http://www.w3.org/2000/svg">
<g clip-path="url(#clip0_88_216)">
<path d="M127.661 55C127.661 55 107.887 63.3975 108.009 80.8811C108.009 80.8811 107.331 89.0036 117.895 104.56C128.46 120.116 129.815 140.629 108.956 152.606C108.956 152.606 131.847 146.41 132.117 122.87C132.117 122.87 132.658 113.37 122.094 97.4015C111.408 81.2942 107.48 70.4188 127.661 55Z" fill="white"/>
<path fill-rule="evenodd" clip-rule="evenodd" d="M170.134 115.851C168.729 85.5154 137.689 88.5492 137.689 88.5492V187H144.431V145.358L144.56 145.316C146.553 144.677 171.076 136.828 170.134 115.851ZM144.29 143.566V93.237C144.29 93.237 163.674 93.9265 163.532 115.437C163.674 138.326 144.29 143.566 144.29 143.566Z" fill="white"/>
<path d="M264.742 120.584C264.309 122.728 263.439 124.443 261.485 125.301C257.577 127.23 253.67 126.587 249.761 124.872C249.544 124.657 249.544 124.443 249.544 124.229C249.544 123.157 249.761 122.085 249.979 120.799C251.064 121.227 252.15 121.871 253.453 122.085C254.971 122.514 256.709 122.514 258.229 122.3C259.532 122.085 260.4 121.013 260.617 119.727C260.617 119.297 260.563 118.92 260.398 118.571C260.235 118.224 259.965 117.904 259.532 117.583C258.229 116.511 256.709 116.082 255.189 115.654L252.583 114.367C249.761 112.652 249.109 110.509 249.544 107.722C249.979 104.935 251.932 103.005 255.189 102.577C257.794 102.148 260.617 102.577 263.223 103.434C263.473 103.558 263.58 103.682 263.624 103.848C263.656 103.968 263.656 104.111 263.656 104.292C263.539 104.869 263.484 105.446 263.392 106.023C263.314 106.518 263.205 107.013 263.006 107.508C261.92 107.079 260.835 106.864 259.532 106.65L259.325 106.62C257.892 106.417 256.649 106.241 255.406 106.65C253.886 107.079 253.018 108.151 253.453 109.865C253.67 110.294 253.886 110.723 254.321 110.937C255.19 111.509 256.252 111.89 257.314 112.272C257.843 112.462 258.374 112.652 258.88 112.867C259.965 113.296 261.051 113.724 262.136 114.582C263.874 116.082 264.526 117.797 264.309 119.941C264.309 120.156 264.309 120.37 264.742 120.584Z" fill="white"/>
<path d="M276.468 107.508V125.515C276.468 126.158 276.25 126.158 275.815 126.158H272.559C272.124 126.372 272.124 126.158 272.124 125.73V107.722C272.124 107.293 271.907 107.079 271.474 107.079H266.045C265.394 107.079 265.394 106.864 265.394 106.435V103.434C265.394 103.22 265.394 103.005 265.827 103.005H283.198V106.864H277.118C276.683 106.864 276.468 106.864 276.468 107.508Z" fill="white"/>
<path d="M328.623 103.201C328.606 103.271 328.575 103.353 328.575 103.434V125.515C328.575 125.73 328.793 125.944 329.01 126.158H325.537C325.102 126.158 325.102 125.944 325.102 125.73V110.509C324.669 111.152 324.451 111.795 324.234 112.438C322.28 116.94 320.543 121.227 318.805 125.73C318.805 125.944 318.589 126.158 318.154 126.158H316.201C315.983 126.158 315.766 126.158 315.548 125.73C313.813 121.013 311.857 116.297 309.904 111.58C309.744 111.424 309.585 111.268 309.512 111.111C309.485 111.053 309.469 110.995 309.469 110.937V125.73C309.469 125.944 309.469 126.158 309.252 126.158H305.778C305.345 126.158 305.345 125.944 305.345 125.73V103.648C305.345 103.22 305.56 103.005 305.995 103.005H309.686C309.976 103.005 310.194 103.148 310.337 103.434C310.989 105.15 311.696 106.866 312.403 108.581C313.108 110.296 313.813 112.01 314.463 113.724C314.902 115.167 315.538 116.514 316.105 117.894C316.38 118.563 316.639 119.241 316.851 119.941C317.069 119.941 317.069 119.727 317.069 119.513C318.372 115.939 319.868 112.365 321.365 108.791C322.112 107.005 322.858 105.219 323.581 103.434C323.581 103.22 323.799 103.005 324.234 103.005H328.358C328.628 103.005 328.648 103.088 328.623 103.201Z" fill="white"/>
<path d="M216.758 115.654L214.152 114.367C211.331 112.652 210.679 110.509 211.114 107.722C211.548 104.935 213.502 103.005 216.758 102.577C219.364 102.148 222.187 102.577 224.793 103.434C225.226 103.648 225.226 103.863 225.226 104.292C225.117 104.83 225.063 105.368 225.009 105.906C224.954 106.44 224.9 106.974 224.793 107.508C223.706 107.079 222.62 106.864 221.317 106.65C220.467 106.53 219.685 106.41 218.931 106.403C218.338 106.397 217.766 106.461 217.193 106.65C215.673 107.079 214.805 108.151 215.238 109.865C215.455 110.294 215.673 110.723 216.108 110.937C216.832 111.414 217.691 111.759 218.572 112.081C219.275 112.338 219.993 112.581 220.667 112.867C221.752 113.296 222.838 113.724 223.923 114.582C225.661 116.082 226.311 117.797 226.094 119.941C226.094 120.156 226.094 120.37 226.311 120.584C226.094 122.728 225.009 124.443 223.055 125.301C219.146 127.23 215.238 126.587 211.331 124.872C211.114 124.657 211.114 124.443 211.114 124.229C211.114 123.157 211.331 122.085 211.548 120.799C211.862 120.923 212.175 121.065 212.494 121.209C213.279 121.564 214.096 121.933 215.022 122.085C216.541 122.514 218.279 122.514 219.799 122.3C221.102 122.085 221.97 121.013 222.187 119.727C222.187 118.869 221.97 118.226 221.102 117.583C219.799 116.511 218.279 116.082 216.758 115.654Z" fill="white"/>
<path d="M234.982 119.068C234.96 118.875 234.908 118.696 234.779 118.44C233.465 115.954 232.206 113.522 230.947 111.09C229.709 108.699 228.471 106.307 227.181 103.863C227.181 103.766 227.181 103.669 227.161 103.572C227.138 103.455 227.083 103.337 226.964 103.22H231.74C231.873 103.22 232.003 103.22 232.085 103.267C232.139 103.298 232.173 103.349 232.173 103.434C232.826 104.721 233.424 106.008 234.022 107.295C234.618 108.58 235.214 109.866 235.865 111.152C236.191 111.795 236.461 112.385 236.733 112.974C237.004 113.563 237.276 114.153 237.602 114.796C238.037 114.582 238.037 114.367 238.037 114.153C238.512 113.016 239.007 111.898 239.516 110.79C240.639 108.346 241.835 105.941 243.03 103.434C243.113 103.352 243.164 103.27 243.207 103.2C243.28 103.087 243.33 103.005 243.464 103.005C244.416 103.005 245.365 103.005 246.103 103.11C246.545 103.173 246.911 103.274 247.156 103.434C246.721 104.506 246.288 105.364 245.853 106.221C245.093 107.829 244.278 109.383 243.464 110.938C242.651 112.492 241.835 114.046 241.076 115.654C241.076 115.868 240.859 116.297 240.641 116.511C239.556 118.226 239.123 119.727 239.338 121.656V126.158C239.338 126.372 239.338 126.587 238.905 126.587H235.432C235.142 126.587 234.997 126.444 234.997 126.158V119.513C234.997 119.339 234.997 119.2 234.982 119.068Z" fill="white"/>
<path d="M301.001 125.944H286.454C286.021 125.944 285.803 125.73 285.803 125.301V103.434C285.803 103.005 286.021 102.791 286.454 102.791H300.784V106.221C301.001 106.65 300.784 106.65 300.351 106.65H290.797C290.363 106.65 290.145 106.864 290.145 107.293V111.795C290.145 112.081 290.29 112.223 290.58 112.223H298.613C299.048 112.223 299.265 112.438 299.265 112.867V115.225C299.265 115.868 299.048 115.868 298.613 115.868H290.58C290.29 115.868 290.145 116.011 290.145 116.297V121.871C290.145 122.3 290.363 122.3 290.797 122.3H301.436C301.588 122.449 301.529 122.703 301.478 122.915C301.456 123.008 301.436 123.092 301.436 123.157C301.436 124.014 301.436 124.872 301.219 125.515C301.219 125.73 301.219 125.944 301.001 125.944Z" fill="white"/>
<path fill-rule="evenodd" clip-rule="evenodd" d="M247.708 153.451C247.987 153.902 248.266 154.361 248.545 154.842C248.656 155.167 248.765 155.491 248.902 155.843C249.037 156.189 249.198 156.561 249.413 156.986H244.854C244.637 156.986 244.419 156.771 244.202 156.557C243.55 155.163 242.845 153.823 242.14 152.484C241.435 151.144 240.73 149.804 240.078 148.41C239.86 148.196 239.643 147.982 239.21 147.982H236.386C235.734 147.982 235.734 148.196 235.734 148.625V156.343C235.734 156.771 235.519 156.986 235.084 156.986H231.827C231.537 156.986 231.392 156.843 231.392 156.557V134.261C231.392 133.976 231.537 133.833 231.827 133.833H240.511C242.249 133.833 243.986 134.047 245.505 135.119C247.025 135.977 247.677 137.477 247.893 139.192C247.893 139.9 247.893 140.542 247.857 141.191C247.828 141.722 247.775 142.258 247.677 142.836C247.243 144.766 246.157 146.052 244.202 146.695C243.769 146.695 243.769 146.91 243.986 147.124C244.309 147.656 244.631 148.241 244.956 148.826C245.284 149.42 245.612 150.014 245.94 150.554C246.529 151.574 247.119 152.494 247.708 153.451ZM240.078 144.123C241.598 144.123 242.683 143.694 243.117 142.194C243.334 141.336 243.551 140.693 243.334 139.835C243.117 138.335 242.466 137.692 240.946 137.477C240.032 137.252 239.177 137.204 238.32 137.21C237.548 137.215 236.774 137.263 235.952 137.263C235.796 137.263 235.752 137.372 235.74 137.513C235.734 137.569 235.734 137.63 235.734 137.692V143.694C235.734 143.909 235.519 144.123 235.952 144.123H240.078Z" fill="white"/>
<path fill-rule="evenodd" clip-rule="evenodd" d="M225.313 134.905C226.833 136.191 227.484 137.692 227.701 139.621C227.701 140.121 227.776 140.549 227.837 140.946C227.881 141.229 227.919 141.497 227.919 141.765C228.136 141.979 228.136 142.408 227.919 142.622C227.701 144.123 227.051 145.195 226.181 146.267C225.096 147.553 223.36 147.982 221.839 148.196C219.886 148.625 217.931 148.41 215.977 148.41C215.542 148.41 215.325 148.625 215.325 149.053V155.914C215.325 156.128 215.325 156.343 214.892 156.343H211.418C211.128 156.343 210.983 156.2 210.983 155.914V133.833C210.983 133.506 211.11 133.428 211.362 133.41C211.44 133.404 211.53 133.404 211.634 133.404H219.886C221.839 133.618 223.577 133.833 225.313 134.905ZM220.101 145.195C221.839 144.981 222.707 144.337 223.142 143.051C223.36 141.979 223.36 140.907 223.142 140.05C222.925 138.549 222.057 137.692 220.536 137.477C218.8 137.048 217.28 137.263 215.542 137.263C215.325 137.263 215.325 137.477 215.325 137.692V144.766C215.325 144.981 215.325 145.195 215.76 145.195H220.101Z" fill="white"/>
<path d="M396.405 133.618H399.661C400.096 133.618 399.878 133.833 399.878 134.047C399.878 141.336 399.878 148.839 399.228 156.343C399.228 156.414 399.252 156.485 399.275 156.557C399.324 156.7 399.371 156.843 399.228 156.986H396.622C396.488 156.986 396.437 156.904 396.365 156.791C396.321 156.721 396.271 156.638 396.187 156.557C393.955 153.574 391.722 150.512 389.537 147.419C388.109 145.4 386.703 143.368 385.331 141.336C385.331 141.122 385.114 141.122 385.114 140.907V156.343C385.114 156.771 384.896 156.986 384.463 156.986H381.857C381.423 156.986 381.278 156.889 381.23 156.698C381.207 156.603 381.207 156.484 381.207 156.343V134.261C381.207 134.047 381.207 133.833 381.64 133.833H384.681C384.809 133.833 384.94 133.911 385.07 134.019C385.157 134.091 385.244 134.176 385.331 134.261C386.422 135.876 387.567 137.49 388.713 139.105C389.847 140.706 390.981 142.307 392.063 143.909C392.898 144.872 393.645 145.925 394.361 147.008C394.759 147.612 395.149 148.226 395.537 148.839C395.537 149.053 395.752 149.053 395.752 149.053V134.261C395.752 133.618 395.97 133.618 396.405 133.618Z" fill="white"/>
<path fill-rule="evenodd" clip-rule="evenodd" d="M376.429 138.549C376.863 140.05 377.081 141.551 377.298 143.051V146.267C377.298 146.695 377.516 147.124 377.298 147.553C377.081 149.268 376.863 150.983 376.213 152.484C375.343 154.627 373.825 156.128 371.436 156.771C368.613 157.414 366.007 157.414 363.402 156.771C360.796 155.914 359.06 154.199 358.192 151.84C357.322 149.053 357.106 146.267 357.322 143.48C357.54 141.979 357.757 140.478 358.192 138.978C359.495 135.119 362.099 133.833 365.139 133.404C366.022 133.317 366.904 133.265 367.787 133.278C369.075 133.296 370.364 133.451 371.652 133.833C374.04 134.69 375.561 136.191 376.429 138.549ZM372.603 148.914C372.685 148.567 372.739 148.194 372.739 147.767C372.955 145.409 372.955 142.836 372.522 140.478C372.087 138.764 371.219 137.692 369.699 137.263C368.396 136.834 367.093 136.834 365.79 137.048C364.487 137.263 363.619 137.906 362.968 138.978C362.316 139.835 362.099 140.907 362.099 141.979V147.982C362.099 148.692 362.247 149.255 362.421 149.915L362.534 150.34C362.968 151.412 363.619 152.269 364.922 152.698C365.594 152.919 366.266 153.026 366.939 153.049C367.569 153.07 368.2 153.016 368.831 152.912C370.784 152.698 371.869 151.626 372.304 149.911C372.413 149.588 372.522 149.265 372.603 148.914Z" fill="white"/>
<path d="M349.072 133.618H352.763C353.198 133.618 352.98 133.833 352.98 134.047V156.343C352.98 156.343 352.98 156.406 352.946 156.497C352.917 156.575 352.863 156.673 352.763 156.771H348.854C348.713 156.771 348.617 156.748 348.553 156.71C348.421 156.631 348.421 156.487 348.421 156.343V134.261C348.421 133.833 348.639 133.618 349.072 133.618Z" fill="white"/>
<path fill-rule="evenodd" clip-rule="evenodd" d="M270.908 143.051V146.267C270.908 146.41 270.932 146.552 270.955 146.695C271.004 146.981 271.053 147.267 270.908 147.553C270.908 149.697 270.475 152.055 269.172 153.984C268.302 155.485 267 156.343 265.481 156.771C262.658 157.414 260.052 157.414 257.231 156.771C254.625 155.914 252.887 154.199 252.019 151.84C251.151 149.053 250.934 146.267 251.151 143.48C251.367 141.979 251.584 140.478 252.019 138.978C253.105 135.119 255.928 133.833 258.967 133.404C261.138 132.975 263.31 133.19 265.481 133.833C267.652 134.476 269.172 136.191 270.04 138.335C270.296 139.214 270.475 140.167 270.624 141.107C270.729 141.772 270.818 142.43 270.908 143.051ZM265.914 149.911C266.132 149.268 266.349 148.625 266.349 147.767C266.566 145.195 266.566 142.836 266.132 140.478C265.698 138.978 264.829 137.692 263.31 137.263C262.007 136.834 260.704 136.834 259.402 137.048C257.881 137.263 256.796 138.12 256.361 139.407C255.928 140.264 255.71 141.122 255.71 141.979V147.982C255.71 148.301 255.765 148.674 255.844 149.047C255.926 149.424 256.035 149.802 256.143 150.126C256.361 151.412 257.231 152.269 258.532 152.698C259.835 153.127 261.138 153.127 262.44 152.912C264.396 152.698 265.481 151.626 265.914 149.911Z" fill="white"/>
<path d="M432.447 152.698H442V156.771H428.105C427.453 156.771 427.453 156.557 427.453 156.128V134.261C427.453 133.833 427.67 133.618 428.105 133.618H431.361C431.794 133.404 431.794 133.618 431.794 134.047V152.055C431.794 152.698 432.012 152.698 432.447 152.698Z" fill="white"/>
<path fill-rule="evenodd" clip-rule="evenodd" d="M418.767 141.336C419.42 142.622 419.853 144.123 420.288 145.409C421.156 147.768 422.026 149.911 422.894 152.269C423.138 152.833 423.352 153.366 423.559 153.881C423.901 154.736 424.224 155.539 424.63 156.343H420.07C419.637 156.343 419.637 156.128 419.637 155.914C419.202 154.627 418.767 153.127 418.334 151.84C418.276 151.783 418.233 151.726 418.193 151.672C418.086 151.527 418.001 151.412 417.682 151.412H409.432C408.997 151.412 408.781 151.412 408.781 151.84C408.56 152.492 408.339 153.199 408.12 153.906C407.906 154.593 407.692 155.279 407.478 155.914C407.333 156.2 407.116 156.343 406.826 156.343H402.702C402.551 156.195 402.609 156.047 402.66 155.899C402.682 155.832 402.702 155.766 402.702 155.699C403.2 154.517 403.653 153.288 404.102 152.036C404.632 150.564 405.153 149.058 405.741 147.553C407.478 143.051 408.997 138.335 410.735 133.833C410.952 133.618 410.952 133.404 411.385 133.404H415.511C415.801 133.404 416.019 133.547 416.162 133.833C416.533 134.929 416.903 135.986 417.273 137.038C417.771 138.454 418.269 139.86 418.767 141.336ZM409.867 147.982H416.597C416.738 147.982 416.81 147.948 416.814 147.879C416.818 147.808 416.745 147.699 416.597 147.553C415.946 145.195 415.294 143.051 414.643 140.907C414.208 139.621 413.773 138.12 413.34 136.62C412.799 138.548 412.202 140.424 411.606 142.299C411.008 144.175 410.41 146.052 409.867 147.982Z" fill="white"/>
<path d="M339.085 143.48C340.171 143.909 341.256 144.337 342.342 145.195C344.078 146.481 344.73 148.41 344.947 150.554C345.163 150.769 345.163 150.983 344.947 151.197C344.73 153.341 343.645 155.056 341.689 155.914C337.783 157.843 333.874 157.2 329.965 155.485C329.748 155.27 329.748 155.056 329.748 154.842C329.748 153.926 329.905 153.011 330.087 151.962L330.183 151.412C331.268 151.84 332.354 152.484 333.656 152.698C335.177 153.127 336.913 153.127 338.433 152.912C339.736 152.698 340.604 151.626 340.821 150.34C340.821 149.482 340.604 148.839 339.736 148.196C338.433 147.124 336.913 146.695 335.394 146.267L332.788 144.981C329.965 143.265 329.315 141.122 329.748 138.335C330.183 135.548 332.136 133.618 335.394 133.19C337.998 132.761 340.821 133.19 343.427 134.047C343.762 134.212 343.838 134.377 343.857 134.64C343.862 134.718 343.862 134.806 343.862 134.905C343.645 135.977 343.645 137.048 343.21 138.12C342.525 137.85 341.84 137.665 341.102 137.511C340.669 137.421 340.218 137.342 339.736 137.263C338.698 137.116 337.761 136.97 336.857 137.028C336.436 137.056 336.023 137.127 335.61 137.263C334.091 137.692 333.222 138.764 333.656 140.478C333.874 140.907 334.091 141.336 334.524 141.551C335.827 142.408 337.565 142.836 339.085 143.48Z" fill="white"/>
<path d="M290.015 134.476V134.905C290.232 135.548 290.232 136.405 290.667 137.263C290.843 137.782 290.593 137.742 290.377 137.708C290.324 137.7 290.274 137.692 290.232 137.692H281.114C280.389 137.692 280.028 138.049 280.028 138.764V142.836C280.028 143.48 280.244 143.48 280.679 143.48H288.279C288.451 143.48 288.621 143.48 288.686 143.692C288.703 143.748 288.712 143.819 288.712 143.909V147.124C288.599 147.237 288.485 147.231 288.371 147.2C288.268 147.173 288.165 147.124 288.061 147.124H280.244C279.593 147.124 279.593 147.339 279.593 147.767V156.128C279.593 156.771 279.376 156.771 278.943 156.771H275.685C275.252 156.771 275.034 156.557 275.034 156.128V134.261C275.034 133.787 275.154 133.663 275.389 133.63C275.473 133.618 275.571 133.618 275.685 133.618H289.147C289.727 133.618 290.015 133.904 290.015 134.476Z" fill="white"/>
<path d="M298.482 152.912H309.121C309.339 153.127 309.121 153.556 309.121 153.77C309.121 154.262 309.121 154.755 309.081 155.207C309.05 155.542 308.998 155.854 308.905 156.128C308.905 156.343 308.905 156.557 308.688 156.557H294.141C293.706 156.557 293.488 156.343 293.488 155.914V134.047C293.488 133.618 293.706 133.404 294.141 133.404H308.471V136.834C308.688 137.263 308.471 137.263 308.036 137.263H298.482C298.049 137.263 297.832 137.477 297.832 137.906V142.408C297.832 142.694 297.977 142.836 298.265 142.836H306.3C306.733 142.836 306.95 143.051 306.95 143.48V145.838C306.95 146.481 306.733 146.481 306.3 146.481H298.265C297.977 146.481 297.832 146.624 297.832 146.91V152.484C297.832 152.912 298.049 152.912 298.482 152.912Z" fill="white"/>
<path d="M324.971 145.195C326.709 146.695 327.36 148.41 327.142 150.554C327.142 150.769 327.142 150.983 327.577 151.197C327.36 153.341 326.274 155.056 324.321 155.914C320.412 157.843 316.503 157.2 312.597 155.485C312.379 155.27 312.379 155.056 312.379 154.842C312.379 153.932 312.537 153.022 312.714 151.982L312.812 151.412C313.126 151.536 313.441 151.678 313.76 151.822C314.545 152.177 315.362 152.546 316.286 152.698C318.024 153.127 319.544 153.127 321.064 152.912C322.365 152.698 323.235 151.626 323.453 150.34C323.453 149.482 323.235 148.839 322.365 148.196C321.064 147.124 319.544 146.695 318.024 146.267L315.418 144.981C312.597 143.265 311.944 141.122 312.379 138.335C312.812 135.548 314.767 133.618 318.024 133.19C320.63 132.761 323.453 133.19 326.057 134.047C326.492 134.261 326.492 134.476 326.492 134.905C326.274 135.977 326.274 137.048 325.841 138.12C324.754 137.692 323.668 137.477 322.365 137.263C320.847 137.048 319.544 136.834 318.241 137.263C316.721 137.692 315.853 138.764 316.286 140.478C316.503 140.907 316.721 141.336 317.156 141.551C318.024 142.122 319.086 142.503 320.146 142.884C320.677 143.075 321.208 143.265 321.715 143.48C322.251 143.691 322.788 143.903 323.324 144.166C323.873 144.436 324.422 144.761 324.971 145.195Z" fill="white"/>
</g>
<defs>
<clipPath id="clip0_88_216">
<rect width="550" height="241" fill="white"/>
</clipPath>
</defs>
</svg>
