<svg width="550" height="241" viewBox="0 0 550 241" fill="none" xmlns="http://www.w3.org/2000/svg">
<g clip-path="url(#clip0_88_210)">
<path fill-rule="evenodd" clip-rule="evenodd" d="M185.243 111.233C184.088 112.176 183.742 111.951 182.995 113.43C181.994 115.395 183.81 115.583 184.168 116.545C184.854 118.364 179.685 127.758 190.715 127.697C193.741 127.678 196.786 127.356 199.775 127.137C210.823 126.34 217.981 127.222 223.231 136.196L224.515 138.393C224.676 138.539 224.663 138.575 224.935 138.581C225.738 138.593 225.182 138.581 225.398 138.411C226.022 137.51 224.608 133.142 224.206 132.102C221.674 125.604 217.098 123.207 210.07 122.349C204.74 121.71 200.071 122.349 194.859 122.58C187.614 122.902 191.493 117.439 191.888 116.386C192.462 114.847 191.437 114.19 190.857 113.515C190.999 111.27 192.561 111.981 192.604 110.339C191.857 109.609 190.332 109.207 190.295 108.161C190.276 107.534 191.653 106.834 191.857 105.21C192.289 101.736 188.232 102.186 188.504 99.3935C189.64 98.4322 191.598 97.3006 192.87 96.3575L197.094 92.993C201.819 88.6064 199.355 86.7568 201.115 82.066C203.208 76.4991 208.526 74.8138 210.354 72.5079C212.268 70.0986 213.38 68.6445 216.561 67.3364C225.269 63.7407 234.014 66.9227 240.313 70.9321C243.5 72.9581 246.279 74.9355 249.256 77.004C256.939 82.3459 268.914 90.9062 277.492 94.1794C295.785 101.188 308.643 91.1374 324.552 85.4731C330.049 83.514 337.417 81.4028 342.888 84.7734C343.778 85.3271 344.34 85.8199 345.038 86.4222C345.606 86.9029 346.347 88.0588 347.131 88.0953C348.613 86.1789 344.988 80.0704 340.474 77.9045C335.65 75.5804 330.938 75.9272 325.621 77.2717C314.078 80.2043 307.951 84.8525 300.232 87.061C285.286 91.3443 272.409 83.1429 261.373 75.5804C257.853 73.165 254.61 70.6583 251.041 68.3525C244.408 64.0632 236.626 58.4476 226.207 58.0217C219.179 57.7357 211.206 60.2789 207.55 65.6755C206.933 66.5759 206.494 67.5068 206.13 68.6628C205.648 70.2203 205.154 70.1534 203.937 70.8895C192.432 77.795 196.322 86.4344 192.709 90.243C191.82 91.1739 188.973 93.1086 187.738 93.9604L182.365 97.4466C181.451 98.1828 181.389 99.4483 181.895 100.574C183.081 103.214 186.077 103.652 184.953 105.8C184.205 107.242 183.131 106.67 183.347 108.66C183.52 110.175 184.384 110.509 185.243 111.233ZM306.84 144.653C306.84 150.469 306.84 156.292 306.84 162.102C306.84 165.747 306.407 176.187 307.272 178.955C307.976 181.206 309.39 182.691 311.484 183.427C313.893 184.279 325.201 183.926 328.511 183.926C331.241 183.926 334.594 184.096 337.268 183.902L340.486 177.124L318.327 177.118C315.264 177.13 314.683 176.558 314.689 173.553C314.714 163.921 314.689 154.29 314.689 144.653H306.84ZM268.827 176.059C268.827 180.92 271.73 183.926 276.646 183.926H303.103C303.097 181.444 302.782 177.957 300.571 177.258C299.645 176.966 285.07 177.118 282.846 177.118C280.012 177.118 276.683 177.878 276.683 174.489L276.689 144.665H268.827V176.059ZM357.05 170.371C358.532 166.769 362.281 159.036 364.257 155.154C365.085 153.518 365.789 151.376 367.82 151.346C369.951 151.315 370.643 153.603 371.47 155.215C372.292 156.827 373.126 158.507 373.91 160.18C374.719 161.938 375.516 163.575 376.331 165.321C377.029 166.824 378.177 168.923 378.653 170.425L357.05 170.371ZM350.997 183.914C351.356 182.837 352.245 181.164 352.776 180.05C353.14 179.296 354.178 176.692 354.765 176.382L381.185 176.388L383.915 182.149C384.304 182.91 384.52 183.816 384.996 183.92L394 183.847L378.017 150.798C375.108 144.629 374.052 144.617 367.814 144.617C360.873 144.617 360.613 145.079 357.655 150.847C355.821 154.43 354.03 158.215 352.313 161.883L341.696 183.914H350.997ZM263.849 183.859C263.849 182.119 263.683 180.288 262.948 178.894C261.997 177.093 261.225 177.057 258.662 177.057C254.524 177.057 250.386 177.069 246.254 177.069C242.166 177.069 237.892 177.203 233.835 177.081C231.333 177.008 231.333 175.645 231.333 173.394C231.34 171.368 231.321 169.336 231.34 167.31L254.184 167.262L254.215 160.387L231.34 160.38C231.315 158.421 231.34 156.493 231.333 154.576C231.321 152.27 231.957 151.607 234.31 151.595L258.507 151.613C260.947 151.613 261.7 151.619 262.559 149.648C263.071 148.468 263.615 146.192 263.578 144.744C253.505 144.75 243.432 144.75 233.359 144.744C228.221 144.738 224.96 146.04 223.626 150.019C222.835 152.38 223.212 161.311 223.2 164.457C223.2 175.055 221.057 183.95 233.68 183.938C235.712 183.938 262.602 184.121 263.849 183.859ZM235.972 98.3105C236.521 99.2292 237.682 98.852 239.807 100.27C241.832 101.632 244.334 103.78 246.063 105.398C247.088 106.36 247.761 107.291 248.879 108.264L254.437 114.068C256.537 116.234 258.236 117.634 260.422 119.623C263.911 122.793 270.019 126.821 274.361 128.615C280.277 131.061 287.583 131.645 294.574 131.037C307.556 129.911 318.846 124.308 329.227 119.702C338.071 115.778 353.968 109.718 360.836 120.244C361.305 120.98 361.478 121.649 362.361 121.613C363.868 119.72 361.515 110.838 353.844 107.996C347.706 105.721 340.01 107.364 334.106 109.146C322.249 112.724 312.769 118.528 300.374 121.54C285.484 125.166 273.743 121.387 264.146 114.385C259.996 111.349 258.699 109.767 254.925 106.53L251.819 103.798C250.034 102.223 247.57 100.3 245.056 99.0224C243.599 98.2862 236.966 95.8343 235.972 98.3105ZM220.742 80.3442C223.657 81.3907 230.951 75.2822 246.075 90.024L249.169 92.9261C250.238 93.93 251.22 94.8122 252.301 95.8039C254.382 97.7143 256.29 99.8255 258.538 101.572L265.332 106.792C269.568 109.517 276.448 112.724 282.433 113.752C295.587 115.991 310.928 109.816 320.958 105.137C327.98 101.864 341.381 96.0594 349.33 99.5943C354.085 101.705 354.548 104.863 355.882 105.027C356.914 104.011 355.963 101.499 355.5 100.257C353.776 95.6092 350.429 92.8957 345.526 91.7519C336.231 89.5799 324.262 95.0677 316.079 98.6087C298.243 106.329 286.472 109.365 268.173 98.6634C261.781 94.9278 255.388 90.3647 249.972 85.8686C244.229 81.1169 236.953 75.4283 228.752 76.0732C226.374 76.2557 220.371 78.0931 220.742 80.3442ZM169.081 183.914H176.621C177.134 182.034 184.594 163.252 186.101 159.285L187.108 156.675C187.151 156.547 187.231 156.335 187.293 156.219L187.565 155.805C189.671 162.041 192.932 170.444 195.396 176.935C195.717 177.769 197.706 183.774 198.2 183.914H205.833C206.383 183.786 207.488 179.758 207.661 179.272C208.223 177.592 208.773 175.974 209.335 174.331L219.334 144.671L211.175 144.641L201.967 172.244C201.479 171.417 199.707 166.179 199.219 164.858L193.741 149.727C192.141 145.213 191.95 145.219 187.855 145.176C184.329 145.152 183.229 144.994 181.661 149.265C180.654 152.009 173.78 171.149 173.218 172.056C173.12 171.922 173.212 172.123 173.027 171.715L164.517 145.45C164.307 144.823 164.424 144.896 163.985 144.641H156C156.309 146.119 164.862 171.812 165.678 174.234L168.08 181.59C168.309 182.259 168.494 183.573 169.081 183.914Z" fill="white"/>
</g>
<defs>
<clipPath id="clip0_88_210">
<rect width="550" height="241" fill="white"/>
</clipPath>
</defs>
</svg>
